<svg xmlns="http://www.w3.org/2000/svg" xmlns:xlink="http://www.w3.org/1999/xlink" width="500" zoomAndPan="magnify" viewBox="0 0 375 374.999991" height="500" preserveAspectRatio="xMidYMid meet" version="1.0"><defs><clipPath id="d92f1c35b4"><path d="M 49 26 L 327 26 L 327 363.425781 L 49 363.425781 Z M 49 26 " clip-rule="nonzero"/></clipPath><clipPath id="d5f1a7dabc"><path d="M 78 11.675781 L 341.464844 11.675781 L 341.464844 275 L 78 275 Z M 78 11.675781 " clip-rule="nonzero"/></clipPath></defs><g clip-path="url(#d92f1c35b4)"><path fill="#00ADB5" d="M 96.277344 257.003906 C 33.328125 194.058594 33.328125 92.007812 96.277344 29.066406 C 99.128906 26.199219 103.777344 26.199219 106.632812 29.066406 C 109.496094 31.925781 109.496094 36.5625 106.632812 39.425781 C 92.636719 53.414062 81.8125 69.71875 74.449219 87.886719 C 67.324219 105.445312 63.71875 123.996094 63.71875 143.035156 C 63.71875 162.074219 67.324219 180.621094 74.449219 198.179688 C 81.8125 216.347656 92.636719 232.65625 106.632812 246.648438 C 120.625 260.632812 136.925781 271.460938 155.09375 278.832031 C 172.648438 285.949219 191.203125 289.554688 210.242188 289.554688 C 229.277344 289.554688 247.832031 285.949219 265.386719 278.832031 C 283.554688 271.460938 299.855469 260.632812 313.851562 246.648438 C 316.714844 243.773438 321.351562 243.773438 324.214844 246.648438 C 327.070312 249.503906 327.070312 254.140625 324.214844 257.003906 C 294.609375 286.613281 256.34375 302.289062 217.570312 304.039062 L 217.570312 348.660156 L 268.855469 348.660156 C 272.898438 348.660156 276.171875 351.945312 276.171875 356 C 276.171875 360.035156 272.898438 363.316406 268.855469 363.316406 L 151.628906 363.316406 C 147.582031 363.316406 144.308594 360.035156 144.308594 356 C 144.308594 351.945312 147.582031 348.660156 151.628906 348.660156 L 202.910156 348.660156 L 202.910156 304.039062 C 164.140625 302.28125 125.882812 286.613281 96.277344 257.003906 Z M 96.277344 257.003906 " fill-opacity="1" fill-rule="nonzero"/></g><g clip-path="url(#d5f1a7dabc)"><path fill="#00ADB5" d="M 210.242188 274.378906 C 137.699219 274.378906 78.894531 215.574219 78.894531 143.035156 C 78.894531 70.488281 137.699219 11.679688 210.242188 11.679688 C 282.785156 11.679688 341.589844 70.488281 341.589844 143.035156 C 341.589844 215.574219 282.785156 274.378906 210.242188 274.378906 Z M 303.011719 200.871094 C 303.59375 202.847656 305.160156 204.925781 307.660156 207.074219 C 307.691406 207.09375 307.722656 207.128906 307.765625 207.160156 C 310.179688 203.488281 312.390625 199.691406 314.378906 195.773438 C 314.472656 195.582031 314.570312 195.382812 314.667969 195.183594 C 315.019531 194.46875 315.375 193.75 315.71875 193.027344 C 315.878906 192.703125 316.03125 192.371094 316.179688 192.042969 C 316.457031 191.433594 316.738281 190.816406 317.015625 190.195312 C 317.167969 189.84375 317.328125 189.492188 317.480469 189.140625 C 317.746094 188.503906 318.015625 187.871094 318.273438 187.230469 C 318.410156 186.898438 318.550781 186.570312 318.679688 186.238281 C 318.992188 185.445312 319.304688 184.644531 319.601562 183.847656 C 319.667969 183.675781 319.730469 183.507812 319.796875 183.34375 C 320.558594 181.25 321.265625 179.148438 321.921875 177.023438 C 321.941406 176.953125 321.953125 176.882812 321.972656 176.808594 C 322.273438 175.835938 322.554688 174.859375 322.820312 173.882812 C 322.863281 173.726562 322.90625 173.574219 322.949219 173.410156 C 323.199219 172.503906 323.421875 171.585938 323.648438 170.675781 C 323.691406 170.507812 323.734375 170.34375 323.765625 170.175781 C 323.992188 169.226562 324.207031 168.277344 324.410156 167.328125 C 324.433594 167.207031 324.464844 167.097656 324.484375 166.976562 C 325.160156 163.730469 325.699219 160.453125 326.097656 157.152344 C 326.105469 157.109375 326.105469 157.066406 326.105469 157.023438 C 325.453125 158.003906 324.871094 158.84375 324.402344 159.507812 C 322.457031 162.207031 320.460938 164.847656 318.519531 167.40625 C 316.019531 170.695312 313.660156 173.808594 311.511719 176.925781 C 302.035156 190.691406 302.121094 197.84375 303.011719 200.871094 Z M 148.355469 128.214844 C 146.132812 132.597656 142.054688 136.503906 136.871094 139.214844 C 131.582031 141.980469 125.304688 143.511719 118.179688 143.78125 C 120.015625 148.0625 123.695312 155.269531 130.703125 167.292969 C 131.21875 168.164062 131.667969 168.941406 132.054688 169.617188 C 135.980469 176.402344 137.292969 183.378906 138.558594 190.125 C 139.609375 195.691406 140.597656 200.945312 143.03125 205.398438 C 145.148438 209.261719 148.515625 212.71875 152.078125 216.367188 C 153.945312 218.289062 155.890625 220.273438 157.714844 222.398438 C 164.324219 230.082031 169.34375 234.308594 176.050781 233.730469 C 177.886719 233.566406 179.753906 230.359375 181.050781 225.144531 C 182.554688 219.027344 183.046875 212.695312 183.5625 205.980469 C 184.144531 198.324219 184.753906 190.417969 186.964844 182.433594 C 189.453125 173.421875 194.714844 167.351562 202.589844 164.402344 C 208.996094 162.003906 216.238281 162.003906 222.625 162.003906 L 223.3125 162.003906 C 224.425781 162.003906 225.542969 162.003906 226.660156 161.988281 C 239.332031 161.839844 246.878906 154.328125 247.359375 141.371094 C 247.808594 129.304688 244.847656 119.871094 238.558594 113.335938 C 231.261719 105.761719 221.445312 104.054688 218.578125 104.054688 C 218.566406 104.054688 218.566406 104.054688 218.566406 104.054688 L 217.527344 104.242188 C 200.828125 107.21875 195.613281 108.742188 194.1875 109.484375 C 189.734375 111.941406 184.980469 113.1875 180.054688 113.1875 C 171.84375 113.1875 163.496094 109.472656 158.796875 103.738281 C 155.964844 100.289062 154.804688 96.417969 155.523438 92.839844 C 156.554688 87.664062 161.222656 83.347656 181.222656 77.875 C 192.105469 74.898438 204.648438 72.46875 211.722656 71.957031 C 212.074219 71.929688 212.449219 71.914062 212.828125 71.914062 C 214.949219 71.914062 217.195312 72.324219 219.363281 72.714844 C 220.316406 72.882812 221.273438 73.058594 222.171875 73.1875 C 222.109375 73.097656 222.042969 73 221.96875 72.910156 C 213.007812 61.09375 199.230469 55.636719 184.644531 49.859375 C 179.011719 47.625 173.183594 45.3125 167.605469 42.597656 C 165.628906 41.640625 164.441406 40.191406 163.417969 37.855469 C 149.855469 43.773438 137.375 52.390625 127.019531 63.046875 C 116.449219 73.921875 108.070312 86.929688 102.542969 100.976562 C 107.789062 104.226562 112.382812 109.308594 113.433594 113.703125 C 115.933594 113.667969 119.765625 112.640625 123.480469 111.644531 C 128.039062 110.425781 132.75 109.160156 136.957031 109.160156 C 143.085938 109.160156 146.367188 111.886719 148.042969 114.171875 C 150.800781 117.90625 150.910156 123.160156 148.355469 128.214844 Z M 292.765625 60.511719 C 282.035156 49.792969 269.554688 41.375 255.65625 35.5 C 241.289062 29.417969 226.007812 26.332031 210.242188 26.332031 C 199.007812 26.332031 188.027344 27.90625 177.4375 31.007812 C 181.480469 32.824219 185.667969 34.496094 190.046875 36.234375 C 205.863281 42.5 222.207031 48.980469 233.644531 64.046875 C 239.097656 71.238281 239.613281 78.867188 234.988281 83.964844 C 232.519531 86.675781 229.019531 88.054688 224.566406 88.054688 C 221.875 88.054688 219.171875 87.566406 216.765625 87.128906 C 215.308594 86.867188 213.644531 86.566406 212.828125 86.566406 L 212.773438 86.566406 C 207.367188 86.957031 197.171875 88.878906 187.972656 91.242188 C 180.289062 93.222656 175.257812 94.96875 172.242188 96.253906 C 174.078125 97.425781 176.792969 98.53125 180.054688 98.53125 C 182.46875 98.53125 184.851562 97.90625 187.105469 96.660156 C 191.269531 94.351562 200.851562 92.328125 214.953125 89.8125 L 216.242188 89.582031 C 216.925781 89.457031 217.6875 89.398438 218.578125 89.398438 C 224.546875 89.398438 238.613281 92.277344 249.109375 103.171875 C 258.273438 112.6875 262.609375 125.71875 262.007812 141.917969 C 261.226562 162.773438 247.414062 176.402344 226.820312 176.640625 C 225.652344 176.648438 224.480469 176.65625 223.3125 176.65625 L 222.625 176.65625 C 208.933594 176.65625 203.535156 177.488281 201.089844 186.339844 C 199.253906 192.949219 198.726562 199.820312 198.167969 207.09375 C 197.632812 214.113281 197.074219 221.367188 195.273438 228.664062 C 191.472656 243.964844 183.414062 247.796875 177.308594 248.324219 C 176.480469 248.386719 175.644531 248.429688 174.828125 248.429688 C 161.875 248.429688 153.464844 239.917969 146.605469 231.945312 C 145.074219 230.164062 143.386719 228.4375 141.59375 226.601562 C 137.496094 222.394531 133.257812 218.0625 130.175781 212.425781 C 126.625 205.945312 125.378906 199.28125 124.15625 192.835938 C 123.074219 187.042969 122.042969 181.570312 119.371094 176.945312 C 118.996094 176.289062 118.542969 175.523438 118.050781 174.675781 C 102.992188 148.871094 99.667969 139.625 103.210938 133.46875 C 104.949219 130.433594 108.261719 128.734375 111.945312 129.015625 C 113.285156 129.117188 114.617188 129.167969 115.882812 129.167969 C 124.929688 129.167969 130.121094 126.664062 132.882812 124.382812 C 131.132812 124.757812 129.179688 125.285156 127.269531 125.792969 C 122.566406 127.054688 117.71875 128.355469 113.296875 128.355469 C 105.6875 128.355469 100.484375 124.277344 99.214844 117.398438 C 98.753906 116.722656 97.90625 115.832031 96.929688 114.988281 C 94.675781 124.097656 93.539062 133.480469 93.539062 143.035156 C 93.539062 158.792969 96.617188 174.074219 102.703125 188.453125 C 108.585938 202.351562 116.996094 214.832031 127.71875 225.550781 C 138.4375 236.273438 150.921875 244.695312 164.816406 250.566406 C 179.195312 256.652344 194.476562 259.730469 210.242188 259.730469 C 226.007812 259.730469 241.289062 256.652344 255.65625 250.566406 C 269.554688 244.695312 282.035156 236.273438 292.765625 225.550781 C 294.878906 223.4375 296.894531 221.25 298.839844 218.996094 C 294.621094 215.421875 290.542969 210.378906 288.953125 205.011719 C 285.273438 192.484375 292.519531 178.691406 299.441406 168.617188 C 303.558594 162.640625 308.261719 156.855469 312.488281 150.964844 C 314.773438 147.785156 320.472656 138.351562 326.246094 130.234375 C 325.023438 118.992188 322.199219 108.0625 317.78125 97.609375 C 311.898438 83.71875 303.484375 71.238281 292.765625 60.511719 Z M 292.765625 60.511719 " fill-opacity="1" fill-rule="nonzero"/></g></svg>