<svg xmlns="http://www.w3.org/2000/svg" xmlns:xlink="http://www.w3.org/1999/xlink" width="1920" zoomAndPan="magnify" viewBox="0 0 1440 809.999993" height="1080" preserveAspectRatio="xMidYMid meet" version="1.0"><defs><g/></defs><path fill="#00adb5" d="M 93.796875 533.082031 C -22.203125 417.085938 -22.203125 229.03125 93.796875 113.042969 C 99.054688 107.761719 107.617188 107.761719 112.878906 113.042969 C 118.160156 118.3125 118.160156 126.855469 112.878906 132.136719 C 87.089844 157.910156 67.140625 187.960938 53.574219 221.4375 C 40.445312 253.789062 33.800781 287.980469 33.800781 323.0625 C 33.800781 358.144531 40.445312 392.324219 53.574219 424.679688 C 67.140625 458.15625 87.089844 488.214844 112.878906 514 C 138.664062 539.765625 168.703125 559.722656 202.183594 573.304688 C 234.535156 586.417969 268.726562 593.0625 303.808594 593.0625 C 338.886719 593.0625 373.078125 586.417969 405.429688 573.304688 C 438.910156 559.722656 468.949219 539.765625 494.734375 514 C 500.015625 508.699219 508.554688 508.699219 513.835938 514 C 519.097656 519.261719 519.097656 527.804688 513.835938 533.082031 C 459.277344 587.644531 388.757812 616.535156 317.3125 619.757812 L 317.3125 701.984375 L 411.816406 701.984375 C 419.273438 701.984375 425.304688 708.035156 425.304688 715.507812 C 425.304688 722.945312 419.269531 728.992188 411.816406 728.992188 L 195.792969 728.992188 C 188.339844 728.992188 182.308594 722.945312 182.308594 715.507812 C 182.308594 708.035156 188.339844 701.984375 195.792969 701.984375 L 290.300781 701.984375 L 290.300781 619.757812 C 218.851562 616.515625 148.355469 587.644531 93.796875 533.082031 Z M 93.796875 533.082031 " fill-opacity="1" fill-rule="nonzero"/><path fill="#00adb5" d="M 303.808594 565.101562 C 170.128906 565.101562 61.761719 456.734375 61.761719 323.0625 C 61.761719 189.375 170.128906 81.007812 303.808594 81.007812 C 437.488281 81.007812 545.855469 189.375 545.855469 323.0625 C 545.855469 456.734375 437.488281 565.101562 303.808594 565.101562 Z M 474.761719 429.640625 C 475.832031 433.28125 478.71875 437.117188 483.324219 441.070312 C 483.386719 441.109375 483.445312 441.171875 483.523438 441.230469 C 487.972656 434.464844 492.046875 427.464844 495.703125 420.25 C 495.882812 419.894531 496.058594 419.527344 496.238281 419.160156 C 496.890625 417.847656 497.542969 416.519531 498.175781 415.1875 C 498.472656 414.59375 498.75 413.980469 499.027344 413.375 C 499.539062 412.25 500.054688 411.113281 500.570312 409.964844 C 500.847656 409.320312 501.144531 408.671875 501.421875 408.027344 C 501.914062 406.851562 502.410156 405.683594 502.882812 404.507812 C 503.140625 403.894531 503.398438 403.289062 503.636719 402.679688 C 504.207031 401.214844 504.78125 399.742188 505.335938 398.269531 C 505.453125 397.953125 505.574219 397.648438 505.691406 397.339844 C 507.09375 393.484375 508.398438 389.609375 509.605469 385.691406 C 509.644531 385.5625 509.664062 385.4375 509.703125 385.296875 C 510.257812 383.507812 510.773438 381.707031 511.265625 379.910156 C 511.34375 379.621094 511.425781 379.335938 511.503906 379.039062 C 511.960938 377.367188 512.375 375.675781 512.789062 373.996094 C 512.867188 373.691406 512.949219 373.382812 513.007812 373.074219 C 513.421875 371.324219 513.820312 369.574219 514.195312 367.824219 C 514.234375 367.609375 514.292969 367.402344 514.332031 367.183594 C 515.578125 361.199219 516.570312 355.160156 517.300781 349.078125 C 517.320312 349 517.320312 348.921875 517.320312 348.839844 C 516.113281 350.648438 515.046875 352.191406 514.175781 353.417969 C 510.597656 358.390625 506.917969 363.257812 503.339844 367.972656 C 498.730469 374.035156 494.382812 379.769531 490.425781 385.511719 C 472.960938 410.882812 473.121094 424.0625 474.761719 429.640625 Z M 189.765625 295.753906 C 185.671875 303.832031 178.15625 311.03125 168.605469 316.023438 C 158.855469 321.117188 147.285156 323.945312 134.15625 324.4375 C 137.539062 332.328125 144.320312 345.605469 157.234375 367.765625 C 158.183594 369.367188 159.011719 370.800781 159.726562 372.046875 C 166.964844 384.554688 169.375 397.40625 171.710938 409.835938 C 173.648438 420.097656 175.46875 429.78125 179.957031 437.984375 C 183.851562 445.105469 190.0625 451.472656 196.628906 458.195312 C 200.070312 461.738281 203.648438 465.394531 207.007812 469.308594 C 219.1875 483.46875 228.445312 491.257812 240.804688 490.191406 C 244.183594 489.894531 247.625 483.980469 250.019531 474.371094 C 252.785156 463.101562 253.695312 451.433594 254.644531 439.054688 C 255.714844 424.945312 256.839844 410.378906 260.914062 395.667969 C 265.5 379.054688 275.191406 367.871094 289.707031 362.433594 C 301.511719 358.015625 314.859375 358.015625 326.625 358.015625 L 327.890625 358.015625 C 329.949219 358.015625 332.003906 358.015625 334.0625 357.984375 C 357.417969 357.71875 371.316406 343.875 372.207031 320 C 373.039062 297.761719 367.582031 280.378906 355.992188 268.335938 C 342.546875 254.375 324.453125 251.230469 319.171875 251.230469 C 319.152344 251.230469 319.152344 251.230469 319.152344 251.230469 L 317.234375 251.574219 C 286.460938 257.0625 276.851562 259.871094 274.222656 261.238281 C 266.015625 265.765625 257.253906 268.058594 248.175781 268.058594 C 233.050781 268.058594 217.664062 261.21875 209.003906 250.648438 C 203.785156 244.289062 201.648438 237.160156 202.972656 230.566406 C 204.871094 221.023438 213.472656 213.074219 250.332031 202.988281 C 270.386719 197.503906 293.503906 193.023438 306.535156 192.082031 C 307.1875 192.035156 307.878906 192.003906 308.570312 192.003906 C 312.484375 192.003906 316.617188 192.757812 320.613281 193.480469 C 322.375 193.785156 324.132812 194.113281 325.792969 194.347656 C 325.675781 194.179688 325.554688 194.003906 325.417969 193.835938 C 308.90625 172.0625 283.515625 162.007812 256.640625 151.359375 C 246.257812 147.246094 235.519531 142.984375 225.238281 137.980469 C 221.597656 136.214844 219.40625 133.542969 217.527344 129.242188 C 192.53125 140.148438 169.53125 156.027344 150.449219 175.664062 C 130.96875 195.707031 115.527344 219.671875 105.339844 245.558594 C 115.011719 251.550781 123.476562 260.914062 125.414062 269.011719 C 130.019531 268.941406 137.082031 267.054688 143.921875 265.214844 C 152.328125 262.972656 161.007812 260.636719 168.761719 260.636719 C 180.054688 260.636719 186.105469 265.660156 189.1875 269.871094 C 194.273438 276.757812 194.472656 286.4375 189.765625 295.753906 Z M 455.878906 170.992188 C 436.101562 151.238281 413.105469 135.722656 387.496094 124.898438 C 361.019531 113.695312 332.859375 108.007812 303.808594 108.007812 C 283.105469 108.007812 262.871094 110.90625 243.355469 116.621094 C 250.808594 119.972656 258.523438 123.046875 266.589844 126.25 C 295.738281 137.800781 325.855469 149.742188 346.9375 177.507812 C 356.980469 190.757812 357.929688 204.816406 349.40625 214.210938 C 344.859375 219.203125 338.414062 221.742188 330.207031 221.742188 C 325.242188 221.742188 320.261719 220.84375 315.832031 220.042969 C 313.140625 219.558594 310.078125 219.003906 308.574219 219.003906 L 308.472656 219.003906 C 298.507812 219.726562 279.722656 223.265625 262.773438 227.617188 C 248.613281 231.265625 239.339844 234.488281 233.785156 236.851562 C 237.164062 239.019531 242.167969 241.054688 248.179688 241.054688 C 252.628906 241.054688 257.019531 239.898438 261.171875 237.601562 C 268.84375 233.351562 286.503906 229.625 312.488281 224.988281 L 314.863281 224.5625 C 316.128906 224.332031 317.53125 224.222656 319.171875 224.222656 C 330.167969 224.222656 356.09375 229.523438 375.433594 249.605469 C 392.320312 267.136719 400.308594 291.152344 399.203125 321.003906 C 397.757812 359.4375 372.308594 384.550781 334.359375 384.988281 C 332.203125 385.007812 330.050781 385.015625 327.894531 385.015625 L 326.628906 385.015625 C 301.394531 385.015625 291.449219 386.546875 286.941406 402.863281 C 283.558594 415.046875 282.589844 427.703125 281.5625 441.109375 C 280.574219 454.042969 279.542969 467.40625 276.222656 480.855469 C 269.222656 509.054688 254.371094 516.113281 243.117188 517.082031 C 241.59375 517.203125 240.050781 517.28125 238.550781 517.28125 C 214.679688 517.28125 199.179688 501.597656 186.542969 486.90625 C 183.714844 483.625 180.609375 480.441406 177.308594 477.058594 C 169.753906 469.304688 161.941406 461.320312 156.265625 450.9375 C 149.722656 438.992188 147.425781 426.710938 145.171875 414.835938 C 143.175781 404.160156 141.277344 394.074219 136.351562 385.550781 C 135.660156 384.34375 134.828125 382.929688 133.917969 381.367188 C 106.175781 333.820312 100.042969 316.78125 106.570312 305.429688 C 109.773438 299.84375 115.882812 296.710938 122.667969 297.222656 C 125.140625 297.410156 127.59375 297.511719 129.925781 297.511719 C 146.597656 297.511719 156.167969 292.894531 161.25 288.691406 C 158.027344 289.382812 154.425781 290.351562 150.90625 291.292969 C 142.246094 293.617188 133.308594 296.007812 125.160156 296.007812 C 111.136719 296.007812 101.546875 288.496094 99.214844 275.820312 C 98.363281 274.574219 96.800781 272.933594 95 271.378906 C 90.847656 288.167969 88.75 305.453125 88.75 323.0625 C 88.75 352.101562 94.425781 380.261719 105.640625 406.761719 C 116.476562 432.367188 131.980469 455.367188 151.738281 475.121094 C 171.492188 494.878906 194.492188 510.402344 220.097656 521.21875 C 246.597656 532.429688 274.757812 538.105469 303.808594 538.105469 C 332.859375 538.105469 361.015625 532.433594 387.496094 521.21875 C 413.105469 510.402344 436.105469 494.878906 455.878906 475.121094 C 459.773438 471.226562 463.492188 467.195312 467.070312 463.042969 C 459.300781 456.457031 451.785156 447.160156 448.859375 437.273438 C 442.074219 414.1875 455.421875 388.765625 468.179688 370.207031 C 475.773438 359.191406 484.433594 348.53125 492.226562 337.675781 C 496.4375 331.8125 506.9375 314.433594 517.578125 299.472656 C 515.324219 278.757812 510.121094 258.617188 501.976562 239.355469 C 491.136719 213.757812 475.632812 190.757812 455.878906 170.992188 Z M 455.878906 170.992188 " fill-opacity="1" fill-rule="nonzero"/><g fill="#ffffff" fill-opacity="1"><g transform="translate(627.918311, 513.89877)"><g><path d="M 117.515625 -227.078125 C 147.710938 -227.078125 173.925781 -216.160156 196.15625 -194.328125 C 218.394531 -172.492188 229.515625 -145.410156 229.515625 -113.078125 C 229.515625 -80.742188 218.90625 -53.203125 197.6875 -30.453125 C 176.476562 -7.703125 150.363281 3.671875 119.34375 3.671875 C 88.332031 3.671875 61.960938 -7.546875 40.234375 -29.984375 C 18.515625 -52.429688 7.65625 -79.160156 7.65625 -110.171875 C 7.65625 -127.109375 10.710938 -142.972656 16.828125 -157.765625 C 22.953125 -172.554688 31.113281 -184.945312 41.3125 -194.9375 C 51.507812 -204.9375 63.238281 -212.789062 76.5 -218.5 C 89.769531 -224.21875 103.441406 -227.078125 117.515625 -227.078125 Z M 61.8125 -111.703125 C 61.8125 -93.546875 67.675781 -78.804688 79.40625 -67.484375 C 91.144531 -56.160156 104.253906 -50.5 118.734375 -50.5 C 133.222656 -50.5 146.28125 -56.003906 157.90625 -67.015625 C 169.539062 -78.035156 175.359375 -92.828125 175.359375 -111.390625 C 175.359375 -129.960938 169.488281 -144.859375 157.75 -156.078125 C 146.019531 -167.296875 132.910156 -172.90625 118.421875 -172.90625 C 103.941406 -172.90625 90.882812 -167.242188 79.25 -155.921875 C 67.625 -144.597656 61.8125 -129.859375 61.8125 -111.703125 Z M 61.8125 -111.703125 "/></g></g></g><g fill="#ffffff" fill-opacity="1"><g transform="translate(851.935686, 513.89877)"><g><path d="M 64.875 -139.859375 C 74.46875 -154.335938 85.992188 -161.578125 99.453125 -161.578125 C 120.265625 -161.578125 135.773438 -152.703125 145.984375 -134.953125 C 148.222656 -138.015625 150.921875 -141.226562 154.078125 -144.59375 C 157.242188 -147.96875 162.296875 -151.640625 169.234375 -155.609375 C 176.171875 -159.585938 183.3125 -161.578125 190.65625 -161.578125 C 206.976562 -161.578125 220.644531 -155.300781 231.65625 -142.75 C 242.675781 -130.207031 248.1875 -109.453125 248.1875 -80.484375 L 248.1875 -26.9375 C 248.1875 -22.238281 248.03125 -18.71875 247.71875 -16.375 C 247.414062 -14.03125 246.453125 -11.328125 244.828125 -8.265625 C 242.171875 -2.753906 234.316406 0 221.265625 0 C 208.410156 0 200.554688 -2.851562 197.703125 -8.5625 C 196.265625 -11.625 195.394531 -14.328125 195.09375 -16.671875 C 194.789062 -19.023438 194.640625 -22.546875 194.640625 -27.234375 L 194.640625 -80.796875 C 194.640625 -98.546875 188.3125 -107.421875 175.65625 -107.421875 C 168.519531 -107.421875 163.675781 -105.070312 161.125 -100.375 C 158.570312 -95.6875 157.296875 -89.054688 157.296875 -80.484375 L 157.296875 -26.9375 C 157.296875 -22.039062 157.140625 -18.46875 156.828125 -16.21875 C 156.523438 -13.976562 155.5625 -11.328125 153.9375 -8.265625 C 151.082031 -2.753906 143.125 0 130.0625 0 C 117.207031 0 109.351562 -2.851562 106.5 -8.5625 C 105.070312 -11.625 104.203125 -14.328125 103.890625 -16.671875 C 103.585938 -19.023438 103.4375 -22.546875 103.4375 -27.234375 L 103.4375 -80.796875 C 103.4375 -98.546875 97.113281 -107.421875 84.46875 -107.421875 C 72.226562 -107.421875 66.109375 -98.546875 66.109375 -80.796875 L 66.109375 -26.625 C 66.109375 -21.9375 65.953125 -18.414062 65.640625 -16.0625 C 65.335938 -13.71875 64.367188 -11.015625 62.734375 -7.953125 C 59.671875 -2.648438 51.710938 0 38.859375 0 C 26.015625 0 18.160156 -2.753906 15.296875 -8.265625 C 13.867188 -11.328125 13 -13.976562 12.6875 -16.21875 C 12.382812 -18.46875 12.234375 -22.039062 12.234375 -26.9375 L 12.234375 -134.65625 C 12.234375 -139.34375 12.382812 -142.859375 12.6875 -145.203125 C 13 -147.554688 13.972656 -150.160156 15.609375 -153.015625 C 18.671875 -158.523438 25.910156 -161.28125 37.328125 -161.28125 C 48.753906 -161.28125 56.203125 -159.441406 59.671875 -155.765625 C 63.140625 -152.097656 64.875 -146.796875 64.875 -139.859375 Z M 64.875 -139.859375 "/></g></g></g><g fill="#ffffff" fill-opacity="1"><g transform="translate(1099.211791, 513.89877)"><g><path d="M 116.90625 -144.140625 C 118.125 -155.566406 126.179688 -161.28125 141.078125 -161.28125 C 149.035156 -161.28125 154.953125 -160.664062 158.828125 -159.4375 C 162.703125 -158.21875 165.40625 -156.078125 166.9375 -153.015625 C 168.46875 -149.953125 169.382812 -147.25 169.6875 -144.90625 C 170 -142.5625 170.15625 -139.039062 170.15625 -134.34375 L 170.15625 -27.234375 C 170.15625 -22.546875 170 -19.023438 169.6875 -16.671875 C 169.382812 -14.328125 168.519531 -11.625 167.09375 -8.5625 C 164.238281 -3.257812 157.25 -0.609375 146.125 -0.609375 C 135.007812 -0.609375 127.5625 -1.984375 123.78125 -4.734375 C 120.007812 -7.492188 117.816406 -11.523438 117.203125 -16.828125 C 109.660156 -6.015625 97.0625 -0.609375 79.40625 -0.609375 C 61.757812 -0.609375 45.390625 -8.664062 30.296875 -24.78125 C 15.203125 -40.90625 7.65625 -59.625 7.65625 -80.9375 C 7.65625 -102.257812 15.253906 -120.925781 30.453125 -136.9375 C 45.648438 -152.957031 62.328125 -160.96875 80.484375 -160.96875 C 87.421875 -160.96875 93.742188 -159.742188 99.453125 -157.296875 C 105.171875 -154.847656 109.148438 -152.550781 111.390625 -150.40625 C 113.640625 -148.269531 115.476562 -146.179688 116.90625 -144.140625 Z M 61.203125 -80.484375 C 61.203125 -73.753906 63.851562 -67.6875 69.15625 -62.28125 C 74.46875 -56.875 80.894531 -54.171875 88.4375 -54.171875 C 95.988281 -54.171875 102.265625 -56.921875 107.265625 -62.421875 C 112.265625 -67.929688 114.765625 -74 114.765625 -80.625 C 114.765625 -87.257812 112.363281 -93.429688 107.5625 -99.140625 C 102.769531 -104.859375 96.34375 -107.71875 88.28125 -107.71875 C 80.226562 -107.71875 73.703125 -104.859375 68.703125 -99.140625 C 63.703125 -93.429688 61.203125 -87.210938 61.203125 -80.484375 Z M 61.203125 -80.484375 "/></g></g></g><g fill="#ffffff" fill-opacity="1"><g transform="translate(1268.448919, 513.89877)"><g><path d="M 12.234375 43.765625 L 12.234375 -134.953125 C 12.234375 -139.648438 12.382812 -143.117188 12.6875 -145.359375 C 13 -147.609375 13.867188 -150.160156 15.296875 -153.015625 C 18.160156 -158.523438 25 -161.28125 35.8125 -161.28125 C 46.625 -161.28125 53.914062 -159.898438 57.6875 -157.140625 C 61.457031 -154.390625 63.648438 -150.363281 64.265625 -145.0625 C 72.015625 -155.664062 84.203125 -160.96875 100.828125 -160.96875 C 117.460938 -160.96875 133.222656 -153.113281 148.109375 -137.40625 C 163.003906 -121.695312 170.453125 -103.4375 170.453125 -82.625 C 170.453125 -61.8125 163.054688 -43.550781 148.265625 -27.84375 C 133.472656 -12.132812 117.710938 -4.28125 100.984375 -4.28125 C 84.253906 -4.28125 72.117188 -8.972656 64.578125 -18.359375 L 64.578125 43.453125 C 64.578125 48.148438 64.421875 51.617188 64.109375 53.859375 C 63.804688 56.109375 62.890625 58.710938 61.359375 61.671875 C 59.828125 64.628906 57.222656 66.71875 53.546875 67.9375 C 49.878906 69.164062 44.882812 69.78125 38.5625 69.78125 C 32.238281 69.78125 27.1875 69.164062 23.40625 67.9375 C 19.632812 66.71875 16.984375 64.675781 15.453125 61.8125 C 13.921875 58.957031 13 56.40625 12.6875 54.15625 C 12.382812 51.914062 12.234375 48.453125 12.234375 43.765625 Z M 72.828125 -100.375 C 68.140625 -94.863281 65.796875 -88.84375 65.796875 -82.3125 C 65.796875 -75.789062 68.191406 -69.828125 72.984375 -64.421875 C 77.785156 -59.015625 83.90625 -56.3125 91.34375 -56.3125 C 98.789062 -56.3125 105.113281 -58.960938 110.3125 -64.265625 C 115.519531 -69.566406 118.125 -75.582031 118.125 -82.3125 C 118.125 -89.050781 115.675781 -95.125 110.78125 -100.53125 C 105.882812 -105.9375 99.507812 -108.640625 91.65625 -108.640625 C 83.800781 -108.640625 77.523438 -105.882812 72.828125 -100.375 Z M 72.828125 -100.375 "/></g></g></g></svg>