<svg xmlns="http://www.w3.org/2000/svg" xmlns:xlink="http://www.w3.org/1999/xlink" width="500" zoomAndPan="magnify" viewBox="0 0 375 374.999991" height="500" preserveAspectRatio="xMidYMid meet" version="1.0"><path fill="#0d3b8d" d="M 323.65625 308.757812 C 299.214844 308.757812 269.835938 284.507812 242.394531 241.046875 L 133.460938 241.046875 C 101.617188 291.488281 67.144531 316.0625 40.847656 306.863281 C 31.152344 303.480469 23.371094 295.746094 17.722656 283.875 C 1.074219 248.929688 5.3125 180.457031 28.039062 117.363281 C 41.882812 78.902344 84.890625 58.675781 123.910156 72.300781 C 131.109375 74.8125 137.890625 78.429688 144.113281 83.085938 L 231.761719 83.085938 C 237.976562 78.4375 244.753906 74.8125 251.960938 72.300781 C 290.960938 58.671875 333.988281 78.894531 347.832031 117.363281 C 370.550781 180.457031 374.800781 248.929688 358.152344 283.875 C 352.5 295.753906 344.722656 303.480469 335.027344 306.863281 C 331.386719 308.132812 327.59375 308.757812 323.664062 308.757812 Z M 323.65625 308.757812 " fill-opacity="1" fill-rule="nonzero"/><path fill="#00286f" d="M 344.210938 284.183594 C 340.339844 285.539062 336.3125 286.199219 332.140625 286.199219 C 306.171875 286.199219 274.953125 260.429688 245.800781 214.253906 L 130.050781 214.253906 C 96.214844 267.847656 59.582031 293.964844 31.640625 284.191406 C 24.078125 281.550781 17.628906 276.40625 12.347656 268.878906 C 13.796875 274.367188 15.578125 279.417969 17.707031 283.890625 C 23.359375 295.769531 31.136719 303.492188 40.832031 306.878906 C 67.128906 316.078125 101.605469 291.503906 133.449219 241.0625 L 242.378906 241.0625 C 269.8125 284.523438 299.199219 308.773438 323.640625 308.773438 C 327.5625 308.773438 331.359375 308.148438 335.003906 306.878906 C 344.699219 303.492188 352.476562 295.761719 358.128906 283.890625 C 360.265625 279.414062 362.039062 274.375 363.488281 268.878906 C 358.210938 276.40625 351.757812 281.550781 344.195312 284.191406 Z M 344.210938 284.183594 " fill-opacity="1" fill-rule="nonzero"/><path fill="#00286f" d="M 202.960938 195.914062 L 172.898438 195.914062 C 168.742188 195.914062 165.382812 192.546875 165.382812 188.394531 C 165.382812 184.242188 168.742188 180.871094 172.898438 180.871094 L 202.960938 180.871094 C 207.117188 180.871094 210.476562 184.242188 210.476562 188.394531 C 210.476562 192.546875 207.117188 195.914062 202.960938 195.914062 Z M 202.960938 195.914062 " fill-opacity="1" fill-rule="nonzero"/><path fill="#00286f" d="M 334.484375 150.785156 C 334.484375 152.632812 334.394531 154.472656 334.214844 156.3125 C 334.03125 158.152344 333.761719 159.976562 333.402344 161.789062 C 333.042969 163.601562 332.59375 165.390625 332.058594 167.160156 C 331.523438 168.929688 330.902344 170.664062 330.195312 172.371094 C 329.488281 174.078125 328.699219 175.746094 327.828125 177.378906 C 326.957031 179.007812 326.011719 180.589844 324.984375 182.125 C 323.960938 183.660156 322.859375 185.144531 321.691406 186.574219 C 320.519531 188 319.28125 189.367188 317.976562 190.675781 C 316.667969 191.980469 315.304688 193.21875 313.875 194.390625 C 312.449219 195.566406 310.96875 196.664062 309.433594 197.691406 C 307.898438 198.71875 306.316406 199.664062 304.6875 200.535156 C 303.058594 201.40625 301.394531 202.195312 299.6875 202.902344 C 297.984375 203.609375 296.246094 204.230469 294.480469 204.769531 C 292.714844 205.304688 290.925781 205.753906 289.113281 206.113281 C 287.304688 206.472656 285.480469 206.746094 283.640625 206.925781 C 281.804688 207.105469 279.964844 207.199219 278.117188 207.199219 C 276.269531 207.199219 274.429688 207.105469 272.59375 206.925781 C 270.753906 206.746094 268.929688 206.472656 267.121094 206.113281 C 265.308594 205.753906 263.519531 205.304688 261.753906 204.769531 C 259.988281 204.230469 258.25 203.609375 256.546875 202.902344 C 254.839844 202.195312 253.171875 201.40625 251.546875 200.535156 C 249.917969 199.664062 248.335938 198.71875 246.800781 197.691406 C 245.265625 196.664062 243.785156 195.566406 242.359375 194.390625 C 240.929688 193.21875 239.566406 191.980469 238.257812 190.675781 C 236.953125 189.367188 235.714844 188 234.542969 186.574219 C 233.375 185.144531 232.273438 183.660156 231.25 182.125 C 230.222656 180.589844 229.277344 179.007812 228.40625 177.378906 C 227.535156 175.746094 226.746094 174.078125 226.039062 172.371094 C 225.332031 170.664062 224.710938 168.929688 224.175781 167.160156 C 223.640625 165.390625 223.191406 163.601562 222.832031 161.789062 C 222.472656 159.976562 222.203125 158.152344 222.019531 156.3125 C 221.839844 154.472656 221.75 152.632812 221.75 150.785156 C 221.75 148.9375 221.839844 147.09375 222.019531 145.253906 C 222.203125 143.414062 222.472656 141.589844 222.832031 139.777344 C 223.191406 137.964844 223.640625 136.175781 224.175781 134.40625 C 224.710938 132.640625 225.332031 130.902344 226.039062 129.195312 C 226.746094 127.488281 227.535156 125.820312 228.40625 124.191406 C 229.277344 122.558594 230.222656 120.976562 231.25 119.441406 C 232.273438 117.90625 233.375 116.421875 234.542969 114.996094 C 235.714844 113.566406 236.953125 112.199219 238.257812 110.890625 C 239.566406 109.585938 240.929688 108.347656 242.359375 107.175781 C 243.785156 106.003906 245.265625 104.902344 246.800781 103.875 C 248.335938 102.851562 249.917969 101.902344 251.546875 101.03125 C 253.171875 100.160156 254.839844 99.371094 256.546875 98.664062 C 258.25 97.957031 259.988281 97.335938 261.753906 96.796875 C 263.519531 96.261719 265.308594 95.8125 267.121094 95.453125 C 268.929688 95.09375 270.753906 94.820312 272.59375 94.640625 C 274.429688 94.460938 276.269531 94.367188 278.117188 94.367188 C 279.964844 94.367188 281.804688 94.460938 283.640625 94.640625 C 285.480469 94.820312 287.304688 95.09375 289.113281 95.453125 C 290.925781 95.8125 292.714844 96.261719 294.480469 96.796875 C 296.246094 97.335938 297.984375 97.957031 299.6875 98.664062 C 301.394531 99.371094 303.058594 100.160156 304.6875 101.03125 C 306.316406 101.902344 307.898438 102.851562 309.433594 103.875 C 310.96875 104.902344 312.449219 106.003906 313.875 107.175781 C 315.304688 108.347656 316.667969 109.585938 317.976562 110.890625 C 319.28125 112.199219 320.519531 113.566406 321.691406 114.996094 C 322.859375 116.421875 323.960938 117.90625 324.984375 119.441406 C 326.011719 120.976562 326.957031 122.558594 327.828125 124.191406 C 328.699219 125.820312 329.488281 127.488281 330.195312 129.195312 C 330.902344 130.902344 331.523438 132.640625 332.058594 134.40625 C 332.59375 136.175781 333.042969 137.964844 333.402344 139.777344 C 333.761719 141.589844 334.03125 143.414062 334.214844 145.253906 C 334.394531 147.09375 334.484375 148.9375 334.484375 150.785156 Z M 334.484375 150.785156 " fill-opacity="1" fill-rule="nonzero"/><path fill="#00286f" d="M 150.351562 150.785156 C 150.351562 152.507812 150.265625 154.226562 150.097656 155.945312 C 149.929688 157.660156 149.675781 159.363281 149.339844 161.054688 C 149.003906 162.746094 148.585938 164.417969 148.085938 166.066406 C 147.585938 167.71875 147.003906 169.339844 146.34375 170.933594 C 145.6875 172.527344 144.949219 174.082031 144.136719 175.605469 C 143.324219 177.125 142.441406 178.601562 141.484375 180.035156 C 140.527344 181.46875 139.5 182.851562 138.410156 184.1875 C 137.316406 185.519531 136.160156 186.796875 134.941406 188.015625 C 133.722656 189.234375 132.449219 190.390625 131.117188 191.484375 C 129.785156 192.578125 128.402344 193.605469 126.96875 194.5625 C 125.535156 195.519531 124.058594 196.40625 122.539062 197.21875 C 121.019531 198.03125 119.464844 198.769531 117.875 199.429688 C 116.28125 200.089844 114.660156 200.667969 113.011719 201.167969 C 111.363281 201.671875 109.695312 202.089844 108.003906 202.425781 C 106.3125 202.761719 104.613281 203.015625 102.898438 203.183594 C 101.183594 203.351562 99.464844 203.4375 97.742188 203.4375 C 96.015625 203.4375 94.296875 203.351562 92.582031 203.183594 C 90.871094 203.015625 89.167969 202.761719 87.476562 202.425781 C 85.785156 202.089844 84.117188 201.671875 82.46875 201.167969 C 80.820312 200.667969 79.199219 200.089844 77.609375 199.429688 C 76.015625 198.769531 74.460938 198.03125 72.941406 197.21875 C 71.421875 196.40625 69.945312 195.519531 68.511719 194.5625 C 67.078125 193.605469 65.695312 192.578125 64.363281 191.484375 C 63.035156 190.390625 61.757812 189.234375 60.539062 188.015625 C 59.320312 186.796875 58.164062 185.519531 57.074219 184.1875 C 55.980469 182.851562 54.953125 181.46875 53.996094 180.035156 C 53.039062 178.601562 52.15625 177.125 51.34375 175.605469 C 50.53125 174.082031 49.792969 172.527344 49.136719 170.933594 C 48.476562 169.339844 47.894531 167.71875 47.394531 166.066406 C 46.894531 164.417969 46.476562 162.746094 46.140625 161.054688 C 45.804688 159.363281 45.554688 157.660156 45.382812 155.945312 C 45.214844 154.226562 45.128906 152.507812 45.128906 150.785156 C 45.128906 149.058594 45.214844 147.339844 45.382812 145.621094 C 45.554688 143.90625 45.804688 142.203125 46.140625 140.511719 C 46.476562 138.820312 46.894531 137.148438 47.394531 135.5 C 47.894531 133.847656 48.476562 132.226562 49.136719 130.632812 C 49.792969 129.039062 50.53125 127.484375 51.34375 125.960938 C 52.15625 124.441406 53.039062 122.964844 53.996094 121.53125 C 54.953125 120.097656 55.980469 118.714844 57.074219 117.378906 C 58.164062 116.046875 59.320312 114.769531 60.539062 113.550781 C 61.757812 112.332031 63.035156 111.175781 64.363281 110.082031 C 65.695312 108.988281 67.078125 107.960938 68.511719 107.003906 C 69.945312 106.046875 71.421875 105.160156 72.941406 104.347656 C 74.460938 103.535156 76.015625 102.796875 77.609375 102.136719 C 79.199219 101.476562 80.820312 100.898438 82.46875 100.398438 C 84.117188 99.898438 85.785156 99.476562 87.476562 99.140625 C 89.167969 98.804688 90.871094 98.550781 92.582031 98.382812 C 94.296875 98.214844 96.015625 98.128906 97.742188 98.128906 C 99.464844 98.128906 101.183594 98.214844 102.898438 98.382812 C 104.613281 98.550781 106.3125 98.804688 108.003906 99.140625 C 109.695312 99.476562 111.363281 99.898438 113.011719 100.398438 C 114.660156 100.898438 116.28125 101.476562 117.875 102.136719 C 119.464844 102.796875 121.019531 103.535156 122.539062 104.347656 C 124.058594 105.160156 125.535156 106.046875 126.96875 107.003906 C 128.402344 107.960938 129.785156 108.988281 131.117188 110.082031 C 132.449219 111.175781 133.722656 112.332031 134.941406 113.550781 C 136.160156 114.769531 137.316406 116.046875 138.410156 117.378906 C 139.5 118.714844 140.527344 120.097656 141.484375 121.53125 C 142.441406 122.964844 143.324219 124.441406 144.136719 125.960938 C 144.949219 127.484375 145.6875 129.039062 146.34375 130.632812 C 147.003906 132.226562 147.585938 133.847656 148.085938 135.5 C 148.585938 137.148438 149.003906 138.820312 149.339844 140.511719 C 149.675781 142.203125 149.929688 143.90625 150.097656 145.621094 C 150.265625 147.339844 150.351562 149.058594 150.351562 150.785156 Z M 150.351562 150.785156 " fill-opacity="1" fill-rule="nonzero"/><path fill="#ffc343" d="M 289.390625 124.457031 C 289.390625 125.199219 289.320312 125.929688 289.175781 126.65625 C 289.03125 127.382812 288.816406 128.089844 288.53125 128.773438 C 288.25 129.457031 287.902344 130.109375 287.492188 130.726562 C 287.078125 131.339844 286.613281 131.910156 286.089844 132.433594 C 285.566406 132.957031 284.996094 133.425781 284.378906 133.839844 C 283.765625 134.25 283.113281 134.597656 282.429688 134.878906 C 281.746094 135.164062 281.042969 135.378906 280.316406 135.523438 C 279.589844 135.667969 278.855469 135.738281 278.117188 135.738281 C 277.375 135.738281 276.644531 135.667969 275.917969 135.523438 C 275.191406 135.378906 274.488281 135.164062 273.804688 134.878906 C 273.117188 134.597656 272.46875 134.25 271.855469 133.839844 C 271.238281 133.425781 270.667969 132.957031 270.144531 132.433594 C 269.621094 131.910156 269.15625 131.339844 268.742188 130.726562 C 268.332031 130.109375 267.984375 129.457031 267.703125 128.773438 C 267.417969 128.089844 267.203125 127.382812 267.058594 126.65625 C 266.914062 125.929688 266.84375 125.199219 266.84375 124.457031 C 266.84375 123.714844 266.914062 122.980469 267.058594 122.253906 C 267.203125 121.527344 267.417969 120.824219 267.703125 120.140625 C 267.984375 119.453125 268.332031 118.804688 268.742188 118.1875 C 269.15625 117.574219 269.621094 117.003906 270.144531 116.476562 C 270.667969 115.953125 271.238281 115.488281 271.855469 115.074219 C 272.46875 114.664062 273.117188 114.316406 273.804688 114.03125 C 274.488281 113.75 275.191406 113.535156 275.917969 113.390625 C 276.644531 113.246094 277.375 113.175781 278.117188 113.175781 C 278.855469 113.175781 279.589844 113.246094 280.316406 113.390625 C 281.042969 113.535156 281.746094 113.75 282.429688 114.03125 C 283.113281 114.316406 283.765625 114.664062 284.378906 115.074219 C 284.996094 115.488281 285.566406 115.953125 286.089844 116.476562 C 286.613281 117.003906 287.078125 117.574219 287.492188 118.1875 C 287.902344 118.804688 288.25 119.453125 288.53125 120.140625 C 288.816406 120.824219 289.03125 121.527344 289.175781 122.253906 C 289.320312 122.980469 289.390625 123.714844 289.390625 124.457031 Z M 289.390625 124.457031 " fill-opacity="1" fill-rule="nonzero"/><path fill="#0075d3" d="M 289.390625 177.109375 C 289.390625 177.851562 289.320312 178.585938 289.175781 179.3125 C 289.03125 180.039062 288.816406 180.742188 288.53125 181.429688 C 288.25 182.113281 287.902344 182.761719 287.492188 183.378906 C 287.078125 183.996094 286.613281 184.566406 286.089844 185.089844 C 285.566406 185.613281 284.996094 186.078125 284.378906 186.492188 C 283.765625 186.902344 283.113281 187.25 282.429688 187.535156 C 281.746094 187.816406 281.042969 188.03125 280.316406 188.175781 C 279.589844 188.320312 278.855469 188.394531 278.117188 188.394531 C 277.375 188.394531 276.644531 188.320312 275.917969 188.175781 C 275.191406 188.03125 274.488281 187.816406 273.804688 187.535156 C 273.117188 187.25 272.46875 186.902344 271.855469 186.492188 C 271.238281 186.078125 270.667969 185.613281 270.144531 185.089844 C 269.621094 184.566406 269.15625 183.996094 268.742188 183.378906 C 268.332031 182.761719 267.984375 182.113281 267.703125 181.429688 C 267.417969 180.742188 267.203125 180.039062 267.058594 179.3125 C 266.914062 178.585938 266.84375 177.851562 266.84375 177.109375 C 266.84375 176.371094 266.914062 175.636719 267.058594 174.910156 C 267.203125 174.183594 267.417969 173.476562 267.703125 172.792969 C 267.984375 172.109375 268.332031 171.457031 268.742188 170.839844 C 269.15625 170.226562 269.621094 169.65625 270.144531 169.132812 C 270.667969 168.609375 271.238281 168.140625 271.855469 167.730469 C 272.46875 167.316406 273.117188 166.96875 273.804688 166.6875 C 274.488281 166.402344 275.191406 166.1875 275.917969 166.042969 C 276.644531 165.898438 277.375 165.828125 278.117188 165.828125 C 278.855469 165.828125 279.589844 165.898438 280.316406 166.042969 C 281.042969 166.1875 281.746094 166.402344 282.429688 166.6875 C 283.113281 166.96875 283.765625 167.316406 284.378906 167.730469 C 284.996094 168.140625 285.566406 168.609375 286.089844 169.132812 C 286.613281 169.65625 287.078125 170.226562 287.492188 170.839844 C 287.902344 171.457031 288.25 172.109375 288.53125 172.792969 C 288.816406 173.476562 289.03125 174.183594 289.175781 174.910156 C 289.320312 175.636719 289.390625 176.371094 289.390625 177.109375 Z M 289.390625 177.109375 " fill-opacity="1" fill-rule="nonzero"/><path fill="#00d18d" d="M 315.695312 150.785156 C 315.695312 151.523438 315.625 152.257812 315.480469 152.984375 C 315.335938 153.710938 315.121094 154.417969 314.835938 155.101562 C 314.554688 155.785156 314.207031 156.4375 313.796875 157.050781 C 313.382812 157.667969 312.917969 158.238281 312.394531 158.761719 C 311.871094 159.285156 311.300781 159.753906 310.683594 160.164062 C 310.070312 160.578125 309.421875 160.925781 308.734375 161.207031 C 308.050781 161.492188 307.347656 161.703125 306.621094 161.847656 C 305.894531 161.992188 305.164062 162.066406 304.421875 162.066406 C 303.683594 162.066406 302.949219 161.992188 302.222656 161.847656 C 301.496094 161.703125 300.792969 161.492188 300.109375 161.207031 C 299.425781 160.925781 298.773438 160.578125 298.160156 160.164062 C 297.542969 159.753906 296.972656 159.285156 296.449219 158.761719 C 295.925781 158.238281 295.460938 157.667969 295.046875 157.050781 C 294.636719 156.4375 294.289062 155.785156 294.007812 155.101562 C 293.722656 154.417969 293.507812 153.710938 293.363281 152.984375 C 293.222656 152.257812 293.148438 151.523438 293.148438 150.785156 C 293.148438 150.042969 293.222656 149.308594 293.363281 148.582031 C 293.507812 147.855469 293.722656 147.148438 294.007812 146.464844 C 294.289062 145.78125 294.636719 145.132812 295.046875 144.515625 C 295.460938 143.898438 295.925781 143.328125 296.449219 142.804688 C 296.972656 142.28125 297.542969 141.8125 298.160156 141.402344 C 298.773438 140.992188 299.425781 140.644531 300.109375 140.359375 C 300.792969 140.074219 301.496094 139.863281 302.222656 139.71875 C 302.949219 139.574219 303.683594 139.5 304.421875 139.5 C 305.164062 139.5 305.894531 139.574219 306.621094 139.71875 C 307.347656 139.863281 308.050781 140.074219 308.734375 140.359375 C 309.421875 140.644531 310.070312 140.992188 310.683594 141.402344 C 311.300781 141.8125 311.871094 142.28125 312.394531 142.804688 C 312.917969 143.328125 313.382812 143.898438 313.796875 144.515625 C 314.207031 145.132812 314.554688 145.78125 314.835938 146.464844 C 315.121094 147.148438 315.335938 147.855469 315.480469 148.582031 C 315.625 149.308594 315.695312 150.042969 315.695312 150.785156 Z M 315.695312 150.785156 " fill-opacity="1" fill-rule="nonzero"/><path fill="#ea4460" d="M 263.085938 150.785156 C 263.085938 151.523438 263.011719 152.257812 262.871094 152.984375 C 262.726562 153.710938 262.511719 154.417969 262.226562 155.101562 C 261.945312 155.785156 261.597656 156.4375 261.1875 157.050781 C 260.773438 157.667969 260.308594 158.238281 259.785156 158.761719 C 259.261719 159.285156 258.691406 159.753906 258.074219 160.164062 C 257.460938 160.578125 256.808594 160.925781 256.125 161.207031 C 255.441406 161.492188 254.738281 161.703125 254.011719 161.847656 C 253.285156 161.992188 252.550781 162.066406 251.8125 162.066406 C 251.070312 162.066406 250.339844 161.992188 249.613281 161.847656 C 248.886719 161.703125 248.183594 161.492188 247.496094 161.207031 C 246.8125 160.925781 246.164062 160.578125 245.550781 160.164062 C 244.933594 159.753906 244.363281 159.285156 243.839844 158.761719 C 243.316406 158.238281 242.851562 157.667969 242.4375 157.050781 C 242.027344 156.4375 241.679688 155.785156 241.398438 155.101562 C 241.113281 154.417969 240.898438 153.710938 240.753906 152.984375 C 240.609375 152.257812 240.539062 151.523438 240.539062 150.785156 C 240.539062 150.042969 240.609375 149.308594 240.753906 148.582031 C 240.898438 147.855469 241.113281 147.148438 241.398438 146.464844 C 241.679688 145.78125 242.027344 145.132812 242.4375 144.515625 C 242.851562 143.898438 243.316406 143.328125 243.839844 142.804688 C 244.363281 142.28125 244.933594 141.8125 245.550781 141.402344 C 246.164062 140.992188 246.8125 140.644531 247.496094 140.359375 C 248.183594 140.074219 248.886719 139.863281 249.613281 139.71875 C 250.339844 139.574219 251.070312 139.5 251.8125 139.5 C 252.550781 139.5 253.285156 139.574219 254.011719 139.71875 C 254.738281 139.863281 255.441406 140.074219 256.125 140.359375 C 256.808594 140.644531 257.460938 140.992188 258.074219 141.402344 C 258.691406 141.8125 259.261719 142.28125 259.785156 142.804688 C 260.308594 143.328125 260.773438 143.898438 261.1875 144.515625 C 261.597656 145.132812 261.945312 145.78125 262.226562 146.464844 C 262.511719 147.148438 262.726562 147.855469 262.871094 148.582031 C 263.011719 149.308594 263.085938 150.042969 263.085938 150.785156 Z M 263.085938 150.785156 " fill-opacity="1" fill-rule="nonzero"/><path fill="#eff3f9" d="M 124.046875 139.5 L 109.015625 139.5 L 109.015625 124.457031 C 109.015625 118.230469 103.964844 113.175781 97.742188 113.175781 C 91.515625 113.175781 86.46875 118.230469 86.46875 124.457031 L 86.46875 139.5 L 71.4375 139.5 C 65.210938 139.5 60.160156 144.554688 60.160156 150.785156 C 60.160156 157.011719 65.210938 162.066406 71.4375 162.066406 L 86.46875 162.066406 L 86.46875 177.109375 C 86.46875 183.339844 91.515625 188.394531 97.742188 188.394531 C 103.964844 188.394531 109.015625 183.339844 109.015625 177.109375 L 109.015625 162.066406 L 124.046875 162.066406 C 130.269531 162.066406 135.320312 157.011719 135.320312 150.785156 C 135.320312 144.554688 130.269531 139.5 124.046875 139.5 Z M 124.046875 139.5 " fill-opacity="1" fill-rule="nonzero"/></svg>