<svg xmlns="http://www.w3.org/2000/svg" xmlns:xlink="http://www.w3.org/1999/xlink" width="500" zoomAndPan="magnify" viewBox="0 0 375 374.999991" height="500" preserveAspectRatio="xMidYMid meet" version="1.0"><defs><g/><clipPath id="569e5dd8c6"><path d="M 7.003906 7.003906 L 367.753906 7.003906 L 367.753906 367.753906 L 7.003906 367.753906 Z M 7.003906 7.003906 " clip-rule="nonzero"/></clipPath></defs><path fill="#15130d" d="M 100.332031 286.8125 C 100.332031 286.8125 78.871094 286.8125 78.871094 286.8125 C 74.957031 286.8125 71.789062 283.640625 71.789062 279.730469 C 71.789062 279.730469 71.789062 229.558594 71.789062 229.558594 C 71.789062 225.648438 74.957031 222.476562 78.871094 222.476562 C 78.871094 222.476562 100.332031 222.476562 100.332031 222.476562 C 104.246094 222.476562 107.414062 225.648438 107.414062 229.558594 C 107.414062 229.558594 107.414062 279.730469 107.414062 279.730469 C 107.414062 283.640625 104.246094 286.8125 100.332031 286.8125 Z M 100.332031 286.8125 " fill-opacity="1" fill-rule="nonzero"/><path fill="#15130d" d="M 296.632812 286.8125 C 296.632812 286.8125 275.171875 286.8125 275.171875 286.8125 C 271.257812 286.8125 268.085938 283.640625 268.085938 279.730469 C 268.085938 279.730469 268.085938 229.558594 268.085938 229.558594 C 268.085938 225.648438 271.257812 222.476562 275.171875 222.476562 C 275.171875 222.476562 296.632812 222.476562 296.632812 222.476562 C 300.542969 222.476562 303.714844 225.648438 303.714844 229.558594 C 303.714844 229.558594 303.714844 279.730469 303.714844 279.730469 C 303.714844 283.640625 300.542969 286.8125 296.632812 286.8125 Z M 296.632812 286.8125 " fill-opacity="1" fill-rule="nonzero"/><path fill="#097dba" d="M 74.21875 199.011719 C 73.324219 209.0625 70.941406 243.574219 78.019531 264.113281 C 78.558594 265.667969 79.550781 267.027344 80.882812 267.992188 C 83.644531 270 89.328125 272.832031 99.378906 272.832031 C 99.378906 272.832031 282.367188 272.832031 282.367188 272.832031 C 282.367188 272.832031 296.03125 272.832031 297.921875 264.914062 C 299.332031 259.011719 305.21875 222.828125 301.679688 198.453125 C 301.46875 197.011719 300.953125 195.632812 300.15625 194.414062 C 300.15625 194.414062 293.289062 183.902344 293.289062 183.902344 C 292.359375 182.480469 291.082031 181.320312 289.578125 180.535156 C 289.578125 180.535156 272.46875 171.582031 272.46875 171.582031 C 272.46875 171.582031 255.277344 136.226562 255.277344 136.226562 C 253.449219 132.472656 249.847656 129.894531 245.703125 129.386719 C 228.519531 127.285156 180.527344 122.714844 128.816406 129.351562 C 124.59375 129.894531 120.957031 132.585938 119.191406 136.460938 C 119.191406 136.460938 103.054688 171.863281 103.054688 171.863281 C 103.054688 171.863281 85.371094 182.742188 85.371094 182.742188 C 84.296875 183.402344 83.359375 184.261719 82.605469 185.273438 C 82.605469 185.273438 76.140625 193.96875 76.140625 193.96875 C 75.046875 195.441406 74.378906 197.183594 74.21875 199.011719 Z M 74.21875 199.011719 " fill-opacity="1" fill-rule="nonzero"/><path fill="#15130d" d="M 74.21875 199.011719 C 73.324219 209.0625 70.941406 243.574219 78.019531 264.113281 C 78.558594 265.667969 79.550781 267.027344 80.882812 267.992188 C 83.644531 270 89.328125 272.832031 99.378906 272.832031 C 99.378906 272.832031 282.367188 272.832031 282.367188 272.832031 C 282.367188 272.832031 296.03125 272.832031 297.921875 264.914062 C 299.332031 259.011719 305.21875 222.828125 301.679688 198.453125 C 301.46875 197.011719 300.953125 195.632812 300.15625 194.414062 C 300.15625 194.414062 293.289062 183.902344 293.289062 183.902344 C 292.359375 182.480469 291.082031 181.320312 289.578125 180.535156 C 289.578125 180.535156 272.46875 171.582031 272.46875 171.582031 C 272.46875 171.582031 255.277344 136.226562 255.277344 136.226562 C 253.449219 132.472656 249.847656 129.894531 245.703125 129.386719 C 228.519531 127.285156 180.527344 122.714844 128.816406 129.351562 C 124.59375 129.894531 120.957031 132.585938 119.191406 136.460938 C 119.191406 136.460938 103.054688 171.863281 103.054688 171.863281 C 103.054688 171.863281 85.371094 182.742188 85.371094 182.742188 C 84.296875 183.402344 83.359375 184.261719 82.605469 185.273438 C 82.605469 185.273438 76.140625 193.96875 76.140625 193.96875 C 75.046875 195.441406 74.378906 197.183594 74.21875 199.011719 Z M 74.21875 199.011719 " fill-opacity="0.3" fill-rule="nonzero"/><path fill="#fffeff" d="M 89.511719 197.691406 C 88.179688 197.390625 86.851562 198.199219 86.476562 199.511719 C 85.460938 203.09375 83.640625 209.886719 83.777344 212.179688 C 83.964844 215.355469 82.28125 216.851562 87.136719 217.597656 C 91.21875 218.226562 120.25 223.078125 129.390625 224.605469 C 130.519531 224.796875 131.375 223.609375 130.84375 222.597656 C 130.84375 222.597656 127.097656 215.46875 127.097656 215.46875 C 126.605469 214.535156 125.855469 213.761719 124.933594 213.242188 C 119.757812 210.332031 101.550781 200.398438 89.511719 197.691406 Z M 89.511719 197.691406 " fill-opacity="1" fill-rule="nonzero"/><path fill="#097dba" d="M 268.621094 163.886719 C 268.621094 163.886719 273.566406 163.886719 273.566406 163.886719 C 273.566406 163.886719 274.097656 159.09375 274.097656 159.09375 C 274.246094 157.765625 275.511719 156.859375 276.820312 157.148438 C 276.820312 157.148438 290.578125 157.105469 290.578125 157.105469 C 292.742188 157.097656 294.628906 158.558594 295.167969 160.652344 C 295.671875 162.617188 295.925781 164.640625 295.925781 166.667969 C 295.925781 168.769531 294.359375 170.539062 292.277344 170.796875 C 292.277344 170.796875 278.328125 172.515625 278.328125 172.515625 C 277.460938 172.625 276.585938 172.394531 275.886719 171.875 C 275.886719 171.875 274.914062 171.15625 274.914062 171.15625 C 274.914062 171.15625 272.363281 171.582031 272.363281 171.582031 " fill-opacity="1" fill-rule="nonzero"/><path fill="#097dba" d="M 107.324219 163.886719 C 107.324219 163.886719 102.378906 163.886719 102.378906 163.886719 C 102.378906 163.886719 101.847656 159.09375 101.847656 159.09375 C 101.699219 157.765625 100.433594 156.859375 99.125 157.148438 C 99.125 157.148438 85.367188 157.105469 85.367188 157.105469 C 83.203125 157.097656 81.316406 158.558594 80.777344 160.652344 C 80.273438 162.617188 80.019531 164.640625 80.019531 166.667969 C 80.019531 168.769531 81.585938 170.539062 83.671875 170.796875 C 83.671875 170.796875 97.617188 172.515625 97.617188 172.515625 C 98.484375 172.625 99.359375 172.394531 100.058594 171.875 C 100.058594 171.875 101.03125 171.15625 101.03125 171.15625 C 101.03125 171.15625 103.582031 171.582031 103.582031 171.582031 " fill-opacity="1" fill-rule="nonzero"/><path fill="#15130d" d="M 134.160156 272.832031 C 134.160156 272.832031 145.726562 266.449219 145.726562 266.449219 C 145.726562 266.449219 229.894531 266.449219 229.894531 266.449219 C 229.894531 266.449219 241.0625 272.832031 241.0625 272.832031 C 241.0625 272.832031 134.160156 272.832031 134.160156 272.832031 Z M 134.160156 272.832031 " fill-opacity="0.3" fill-rule="nonzero"/><path fill="#fffeff" d="M 109 170.046875 C 109 170.046875 119.53125 144.839844 119.53125 144.839844 C 122.203125 138.445312 128.195312 134.058594 135.097656 133.4375 C 155.464844 131.605469 199.957031 128.652344 239.609375 133.199219 C 246 133.929688 251.550781 137.929688 254.308594 143.738281 C 254.308594 143.738281 266.796875 170.046875 266.796875 170.046875 C 266.796875 170.046875 157.035156 166.003906 109 170.046875 Z M 109 170.046875 " fill-opacity="0.23" fill-rule="nonzero"/><path fill="#15130d" d="M 245.152344 163.296875 C 243.621094 158.542969 239.179688 155.246094 234.089844 155.246094 C 234.089844 155.246094 233.417969 155.246094 233.417969 155.246094 C 233.417969 155.246094 233.417969 153.996094 233.417969 153.996094 C 233.417969 153.996094 234.046875 153.996094 234.046875 153.996094 C 236.554688 153.996094 238.589844 151.964844 238.589844 149.457031 C 238.589844 148.207031 238.082031 147.070312 237.261719 146.246094 C 236.4375 145.425781 235.300781 144.917969 234.046875 144.917969 C 234.046875 144.917969 217.136719 144.917969 217.136719 144.917969 C 214.628906 144.917969 212.59375 146.949219 212.59375 149.457031 C 212.59375 150.710938 213.101562 151.847656 213.925781 152.667969 C 214.746094 153.488281 215.882812 153.996094 217.136719 153.996094 C 217.136719 153.996094 218.222656 153.996094 218.222656 153.996094 C 218.222656 153.996094 218.222656 155.246094 218.222656 155.246094 C 218.222656 155.246094 217.203125 155.246094 217.203125 155.246094 C 213.480469 155.246094 210.113281 157.003906 207.976562 159.800781 C 199.828125 160.53125 194.386719 162.097656 191.246094 163.289062 C 188.386719 164.371094 185.375 164.988281 182.316406 165.15625 C 178.683594 165.355469 173.441406 165.613281 167.105469 165.828125 C 167.105469 165.828125 166.894531 164.617188 166.894531 164.617188 C 165.925781 159.050781 161.09375 154.992188 155.445312 154.992188 C 155.445312 154.992188 154.421875 154.992188 154.421875 154.992188 C 154.421875 154.992188 154.421875 153.746094 154.421875 153.746094 C 154.421875 153.746094 155.511719 153.746094 155.511719 153.746094 C 156.765625 153.746094 157.902344 153.238281 158.722656 152.414062 C 159.542969 151.597656 160.050781 150.460938 160.050781 149.207031 C 160.050781 146.699219 158.019531 144.664062 155.511719 144.664062 C 155.511719 144.664062 138.597656 144.664062 138.597656 144.664062 C 137.34375 144.664062 136.207031 145.171875 135.386719 145.996094 C 134.566406 146.816406 134.058594 147.953125 134.058594 149.207031 C 134.058594 151.714844 136.089844 153.746094 138.597656 153.746094 C 138.597656 153.746094 139.230469 153.746094 139.230469 153.746094 C 139.230469 153.746094 139.230469 154.992188 139.230469 154.992188 C 139.230469 154.992188 138.558594 154.992188 138.558594 154.992188 C 133.039062 154.992188 128.277344 158.875 127.171875 164.285156 C 127.171875 164.285156 126.40625 168.019531 126.40625 168.019531 C 120.789062 168.683594 117.390625 169.269531 117.390625 169.269531 C 117.390625 169.269531 260.667969 170.046875 260.667969 170.046875 C 260.667969 170.046875 255.082031 166.332031 245.152344 163.296875 Z M 141.519531 153.746094 C 141.519531 153.746094 152.132812 153.746094 152.132812 153.746094 C 152.132812 153.746094 152.132812 154.992188 152.132812 154.992188 C 152.132812 154.992188 141.519531 154.992188 141.519531 154.992188 C 141.519531 154.992188 141.519531 153.746094 141.519531 153.746094 Z M 220.515625 153.996094 C 220.515625 153.996094 231.125 153.996094 231.125 153.996094 C 231.125 153.996094 231.125 155.246094 231.125 155.246094 C 231.125 155.246094 220.515625 155.246094 220.515625 155.246094 C 220.515625 155.246094 220.515625 153.996094 220.515625 153.996094 Z M 220.515625 153.996094 " fill-opacity="0.2" fill-rule="nonzero"/><path fill="#ff3131" d="M 118.445312 216.023438 C 118.445312 218.8125 116.183594 221.078125 113.394531 221.078125 C 110.605469 221.078125 108.339844 218.8125 108.339844 216.023438 C 108.339844 213.234375 110.605469 210.972656 113.394531 210.972656 C 116.183594 210.972656 118.445312 213.234375 118.445312 216.023438 Z M 118.445312 216.023438 " fill-opacity="0.2" fill-rule="nonzero"/><path fill="#ff3131" d="M 103.457031 210.953125 C 103.457031 214.96875 100.203125 218.222656 96.1875 218.222656 C 92.167969 218.222656 88.914062 214.96875 88.914062 210.953125 C 88.914062 206.933594 92.167969 203.679688 96.1875 203.679688 C 100.203125 203.679688 103.457031 206.933594 103.457031 210.953125 Z M 103.457031 210.953125 " fill-opacity="0.2" fill-rule="nonzero"/><path fill="#fffeff" d="M 234.796875 207.386719 C 234.800781 207.886719 234.710938 208.386719 234.527344 208.878906 C 234.527344 208.878906 233.363281 212.003906 233.363281 212.003906 C 233.363281 212.003906 232.304688 214.847656 232.304688 214.847656 C 232.304688 214.847656 230.585938 219.464844 230.585938 219.464844 C 230.585938 219.464844 229.523438 222.3125 229.523438 222.3125 C 229.523438 222.3125 227.808594 226.925781 227.808594 226.925781 C 227.808594 226.925781 226.746094 229.773438 226.746094 229.773438 C 226.746094 229.773438 225.027344 234.390625 225.027344 234.390625 C 225.027344 234.390625 223.964844 237.238281 223.964844 237.238281 C 223.964844 237.238281 223.628906 238.148438 223.628906 238.148438 C 222.824219 240.304688 220.378906 241.78125 217.605469 241.78125 C 217.605469 241.78125 157.640625 241.78125 157.640625 241.78125 C 154.832031 241.78125 152.359375 240.265625 151.59375 238.070312 C 151.59375 238.070312 151.300781 237.238281 151.300781 237.238281 C 151.300781 237.238281 150.304688 234.390625 150.304688 234.390625 C 150.304688 234.390625 148.691406 229.773438 148.691406 229.773438 C 148.691406 229.773438 147.695312 226.925781 147.695312 226.925781 C 147.695312 226.925781 146.078125 222.3125 146.078125 222.3125 C 146.078125 222.3125 145.082031 219.464844 145.082031 219.464844 C 145.082031 219.464844 143.464844 214.847656 143.464844 214.847656 C 143.464844 214.847656 142.46875 212.003906 142.46875 212.003906 C 142.46875 212.003906 141.339844 208.777344 141.339844 208.777344 C 141.175781 208.320312 141.101562 207.851562 141.101562 207.386719 C 141.101562 206.378906 141.46875 205.382812 142.164062 204.539062 C 142.414062 204.230469 142.710938 203.945312 143.046875 203.6875 C 143.046875 203.6875 145.980469 201.410156 145.980469 201.410156 C 147.152344 200.503906 148.703125 199.996094 150.320312 199.996094 C 150.320312 199.996094 225.445312 199.996094 225.445312 199.996094 C 227.023438 199.996094 228.546875 200.480469 229.707031 201.351562 C 229.707031 201.351562 232.769531 203.644531 232.769531 203.644531 C 233.132812 203.914062 233.449219 204.214844 233.714844 204.539062 C 234.421875 205.382812 234.796875 206.375 234.796875 207.386719 Z M 234.796875 207.386719 " fill-opacity="1" fill-rule="nonzero"/><path fill="#fffeff" d="M 288.546875 197.691406 C 289.878906 197.390625 291.210938 198.199219 291.582031 199.511719 C 292.597656 203.09375 294.417969 209.886719 294.28125 212.179688 C 294.097656 215.355469 295.777344 216.851562 290.921875 217.597656 C 286.839844 218.226562 257.808594 223.078125 248.667969 224.605469 C 247.539062 224.796875 246.683594 223.609375 247.214844 222.597656 C 247.214844 222.597656 250.960938 215.46875 250.960938 215.46875 C 251.453125 214.535156 252.203125 213.761719 253.125 213.242188 C 258.300781 210.332031 276.507812 200.398438 288.546875 197.691406 Z M 288.546875 197.691406 " fill-opacity="1" fill-rule="nonzero"/><path fill="#15130d" d="M 290.546875 196.402344 C 291.164062 196.273438 291.851562 196.488281 292.339844 196.863281 C 292.910156 197.296875 293.203125 197.871094 293.394531 198.546875 C 293.746094 199.789062 294.085938 201.035156 294.414062 202.285156 C 295.105469 204.921875 295.792969 207.589844 296.175781 210.289062 C 296.242188 210.773438 296.300781 211.261719 296.320312 211.753906 C 296.339844 212.199219 296.296875 212.640625 296.304688 213.085938 C 296.316406 213.9375 296.472656 214.785156 296.46875 215.632812 C 296.46875 215.953125 296.429688 216.285156 296.296875 216.582031 C 296.300781 216.582031 296.246094 216.679688 296.214844 216.730469 C 296.171875 216.800781 296.125 216.863281 296.070312 216.925781 C 296.117188 216.871094 296.046875 216.949219 296.03125 216.964844 C 296 216.992188 295.96875 217.023438 295.9375 217.050781 C 295.90625 217.078125 295.871094 217.105469 295.835938 217.132812 C 295.796875 217.160156 295.847656 217.125 295.851562 217.121094 C 295.824219 217.140625 295.796875 217.15625 295.769531 217.175781 C 295.546875 217.316406 295.507812 217.332031 295.25 217.433594 C 295.097656 217.496094 295.085938 217.496094 294.964844 217.535156 C 294.804688 217.585938 294.644531 217.632812 294.484375 217.671875 C 294 217.792969 293.507812 217.875 293.011719 217.953125 C 291.980469 218.113281 290.945312 218.285156 289.914062 218.453125 C 288.230469 218.726562 286.546875 219.003906 284.863281 219.28125 C 282.722656 219.632812 280.585938 219.988281 278.445312 220.34375 C 276.042969 220.742188 273.636719 221.140625 271.234375 221.542969 C 268.761719 221.953125 266.285156 222.367188 263.8125 222.777344 C 261.460938 223.171875 259.109375 223.5625 256.757812 223.957031 C 254.71875 224.296875 252.683594 224.636719 250.648438 224.976562 C 249.800781 225.117188 248.953125 225.261719 248.105469 225.402344 C 247.746094 225.460938 247.382812 225.523438 247.023438 225.582031 C 246.664062 225.644531 246.25 225.78125 245.898438 225.660156 C 245.324219 225.464844 244.949219 224.832031 245.011719 224.234375 C 245.035156 224 245.125 223.804688 245.230469 223.601562 C 245.523438 223.046875 245.8125 222.496094 246.101562 221.945312 C 246.101562 221.945312 248.722656 216.953125 248.722656 216.953125 C 248.914062 216.589844 249.105469 216.226562 249.296875 215.863281 C 249.660156 215.179688 250.140625 214.574219 250.738281 214.078125 C 251.128906 213.757812 251.566406 213.515625 252.007812 213.269531 C 253.539062 212.414062 255.078125 211.574219 256.628906 210.746094 C 258.78125 209.59375 260.949219 208.464844 263.132812 207.367188 C 265.6875 206.082031 268.261719 204.835938 270.863281 203.644531 C 273.570312 202.402344 276.304688 201.214844 279.078125 200.117188 C 281.675781 199.085938 284.308594 198.132812 286.988281 197.335938 C 288.164062 196.988281 289.351562 196.671875 290.546875 196.402344 C 290.703125 196.367188 291.046875 196.21875 290.996094 196.007812 C 290.945312 195.789062 290.546875 195.859375 290.410156 195.890625 C 287.746094 196.488281 285.132812 197.316406 282.5625 198.230469 C 279.734375 199.234375 276.949219 200.359375 274.195312 201.554688 C 271.441406 202.746094 268.722656 204.007812 266.023438 205.316406 C 263.550781 206.515625 261.101562 207.753906 258.667969 209.027344 C 256.773438 210.011719 254.894531 211.019531 253.023438 212.046875 C 252.371094 212.410156 251.71875 212.769531 251.066406 213.136719 C 249.90625 213.785156 248.941406 214.6875 248.316406 215.871094 C 247.628906 217.179688 246.945312 218.488281 246.257812 219.792969 C 245.570312 221.101562 244.871094 222.402344 244.195312 223.714844 C 243.976562 224.148438 243.886719 224.625 244.046875 225.09375 C 244.257812 225.710938 244.808594 226.152344 245.445312 226.261719 C 245.933594 226.34375 246.417969 226.230469 246.898438 226.148438 C 247.265625 226.085938 247.632812 226.023438 248.003906 225.964844 C 249.855469 225.652344 251.710938 225.34375 253.5625 225.035156 C 255.839844 224.652344 258.117188 224.273438 260.394531 223.894531 C 262.890625 223.476562 265.386719 223.0625 267.878906 222.644531 C 270.390625 222.226562 272.898438 221.808594 275.40625 221.394531 C 277.714844 221.007812 280.019531 220.625 282.328125 220.246094 C 284.25 219.925781 286.167969 219.609375 288.089844 219.296875 C 289.40625 219.078125 290.722656 218.863281 292.042969 218.652344 C 292.582031 218.566406 293.125 218.488281 293.660156 218.390625 C 294.746094 218.1875 296.050781 217.925781 296.875 217.117188 C 297.425781 216.574219 297.53125 215.878906 297.5 215.132812 C 297.464844 214.21875 297.316406 213.3125 297.34375 212.394531 C 297.421875 210.0625 296.839844 207.730469 296.3125 205.472656 C 295.980469 204.046875 295.617188 202.625 295.238281 201.207031 C 295.066406 200.554688 294.886719 199.902344 294.707031 199.253906 C 294.542969 198.664062 294.425781 198.015625 294.144531 197.472656 C 293.417969 196.09375 291.882812 195.578125 290.410156 195.890625 C 290.253906 195.921875 289.910156 196.074219 289.960938 196.285156 C 290.011719 196.503906 290.414062 196.429688 290.546875 196.402344 Z M 290.546875 196.402344 " fill-opacity="0.3" fill-rule="nonzero"/><path fill="#ff3131" d="M 256.714844 216.023438 C 256.714844 218.8125 258.976562 221.078125 261.765625 221.078125 C 264.558594 221.078125 266.820312 218.8125 266.820312 216.023438 C 266.820312 213.234375 264.558594 210.972656 261.765625 210.972656 C 258.976562 210.972656 256.714844 213.234375 256.714844 216.023438 Z M 256.714844 216.023438 " fill-opacity="0.2" fill-rule="nonzero"/><path fill="#ff3131" d="M 272.585938 210.953125 C 272.585938 214.96875 275.839844 218.222656 279.855469 218.222656 C 283.875 218.222656 287.128906 214.96875 287.128906 210.953125 C 287.128906 206.933594 283.875 203.679688 279.855469 203.679688 C 275.839844 203.679688 272.585938 206.933594 272.585938 210.953125 Z M 272.585938 210.953125 " fill-opacity="0.2" fill-rule="nonzero"/><path fill="#15130d" d="M 251.730469 250.53125 C 251.730469 250.53125 249.871094 256.730469 249.871094 256.730469 C 249.488281 258.007812 250 259.386719 251.121094 260.105469 C 251.121094 260.105469 253.566406 261.667969 253.566406 261.667969 C 254.085938 262 254.691406 262.164062 255.304688 262.136719 C 255.304688 262.136719 284.636719 260.878906 284.636719 260.878906 C 286.382812 260.804688 287.6875 259.257812 287.476562 257.527344 C 287.476562 257.527344 286.324219 248.210938 286.324219 248.210938 C 286.125 246.601562 284.683594 245.445312 283.070312 245.605469 C 283.070312 245.605469 254.300781 248.414062 254.300781 248.414062 C 253.09375 248.53125 252.078125 249.367188 251.730469 250.53125 Z M 251.730469 250.53125 " fill-opacity="0.2" fill-rule="nonzero"/><path fill="#15130d" d="M 124.214844 250.53125 C 124.214844 250.53125 126.074219 256.730469 126.074219 256.730469 C 126.457031 258.007812 125.945312 259.386719 124.824219 260.105469 C 124.824219 260.105469 122.378906 261.667969 122.378906 261.667969 C 121.859375 262 121.253906 262.164062 120.640625 262.136719 C 120.640625 262.136719 91.308594 260.878906 91.308594 260.878906 C 89.566406 260.804688 88.257812 259.257812 88.46875 257.527344 C 88.46875 257.527344 89.621094 248.210938 89.621094 248.210938 C 89.820312 246.601562 91.261719 245.445312 92.875 245.605469 C 92.875 245.605469 121.644531 248.414062 121.644531 248.414062 C 122.851562 248.53125 123.867188 249.367188 124.214844 250.53125 Z M 124.214844 250.53125 " fill-opacity="0.2" fill-rule="nonzero"/><path fill="#fffeff" d="M 206.238281 268.328125 C 206.238281 268.328125 169.660156 268.328125 169.660156 268.328125 C 168.410156 268.328125 167.394531 267.3125 167.394531 266.0625 C 167.394531 266.0625 167.394531 256.128906 167.394531 256.128906 C 167.394531 254.878906 168.410156 253.863281 169.660156 253.863281 C 169.660156 253.863281 206.238281 253.863281 206.238281 253.863281 C 207.488281 253.863281 208.503906 254.878906 208.503906 256.128906 C 208.503906 256.128906 208.503906 266.0625 208.503906 266.0625 C 208.503906 267.3125 207.488281 268.328125 206.238281 268.328125 Z M 206.238281 268.328125 " fill-opacity="1" fill-rule="nonzero"/><path fill="#15130d" d="M 142.164062 204.539062 C 142.164062 204.539062 233.71875 204.539062 233.71875 204.539062 C 234.457031 205.488281 234.820312 206.4375 234.796875 207.386719 C 234.796875 207.386719 141.101562 207.386719 141.101562 207.386719 C 141.085938 206.21875 141.441406 205.269531 142.164062 204.539062 Z M 142.164062 204.539062 " fill-opacity="1" fill-rule="nonzero"/><path fill="#15130d" d="M 233.363281 212.003906 C 233.363281 212.003906 232.304688 214.847656 232.304688 214.847656 C 232.304688 214.847656 143.464844 214.847656 143.464844 214.847656 C 143.464844 214.847656 142.46875 212.003906 142.46875 212.003906 C 142.46875 212.003906 233.363281 212.003906 233.363281 212.003906 Z M 233.363281 212.003906 " fill-opacity="1" fill-rule="nonzero"/><path fill="#15130d" d="M 230.585938 219.464844 C 230.585938 219.464844 229.523438 222.3125 229.523438 222.3125 C 229.523438 222.3125 146.078125 222.3125 146.078125 222.3125 C 146.078125 222.3125 145.082031 219.464844 145.082031 219.464844 C 145.082031 219.464844 230.585938 219.464844 230.585938 219.464844 Z M 230.585938 219.464844 " fill-opacity="1" fill-rule="nonzero"/><path fill="#15130d" d="M 227.808594 226.925781 C 227.808594 226.925781 226.746094 229.773438 226.746094 229.773438 C 226.746094 229.773438 148.691406 229.773438 148.691406 229.773438 C 148.691406 229.773438 147.695312 226.925781 147.695312 226.925781 C 147.695312 226.925781 227.808594 226.925781 227.808594 226.925781 Z M 227.808594 226.925781 " fill-opacity="1" fill-rule="nonzero"/><path fill="#15130d" d="M 225.027344 234.390625 C 225.027344 234.390625 223.964844 237.238281 223.964844 237.238281 C 223.964844 237.238281 151.300781 237.238281 151.300781 237.238281 C 151.300781 237.238281 150.304688 234.390625 150.304688 234.390625 C 150.304688 234.390625 225.027344 234.390625 225.027344 234.390625 Z M 225.027344 234.390625 " fill-opacity="1" fill-rule="nonzero"/><path fill="#15130d" d="M 196.46875 191.699219 C 196.46875 193.742188 193.488281 195.398438 189.808594 195.398438 C 186.132812 195.398438 183.152344 193.742188 183.152344 191.699219 C 183.152344 189.652344 186.132812 187.996094 189.808594 187.996094 C 193.488281 187.996094 196.46875 189.652344 196.46875 191.699219 Z M 196.46875 191.699219 " fill-opacity="0.2" fill-rule="nonzero"/><path fill="#15130d" d="M 88.917969 195.867188 C 87.398438 195.546875 85.644531 196.246094 84.9375 197.667969 C 84.660156 198.222656 84.535156 198.863281 84.371094 199.457031 C 84.191406 200.109375 84.011719 200.761719 83.839844 201.414062 C 83.109375 204.144531 82.394531 206.902344 81.945312 209.699219 C 81.789062 210.667969 81.699219 211.617188 81.734375 212.601562 C 81.761719 213.519531 81.613281 214.421875 81.578125 215.339844 C 81.546875 216.042969 81.628906 216.75 82.164062 217.261719 C 82.960938 218.023438 84.226562 218.25 85.269531 218.429688 C 86.332031 218.613281 87.402344 218.769531 88.46875 218.941406 C 90.121094 219.210938 91.773438 219.484375 93.425781 219.753906 C 95.578125 220.109375 97.734375 220.46875 99.886719 220.824219 C 102.332031 221.230469 104.773438 221.636719 107.214844 222.042969 C 109.734375 222.460938 112.25 222.882812 114.769531 223.300781 C 117.175781 223.703125 119.582031 224.105469 121.988281 224.503906 C 124.070312 224.851562 126.152344 225.199219 128.230469 225.546875 C 129.082031 225.691406 129.933594 225.832031 130.785156 225.976562 C 131.15625 226.039062 131.527344 226.097656 131.894531 226.160156 C 132.4375 226.253906 132.960938 226.351562 133.507812 226.210938 C 134.660156 225.917969 135.507812 224.726562 134.914062 223.582031 C 134.671875 223.109375 134.421875 222.644531 134.175781 222.175781 C 133.285156 220.476562 132.390625 218.78125 131.5 217.082031 C 131.265625 216.632812 131.03125 216.183594 130.792969 215.738281 C 130.164062 214.550781 129.238281 213.675781 128.074219 213.023438 C 126.566406 212.175781 125.046875 211.34375 123.519531 210.523438 C 121.347656 209.359375 119.164062 208.222656 116.964844 207.109375 C 114.367188 205.800781 111.75 204.527344 109.105469 203.3125 C 106.34375 202.039062 103.550781 200.820312 100.722656 199.699219 C 98.046875 198.636719 95.335938 197.652344 92.574219 196.832031 C 91.363281 196.46875 90.148438 196.144531 88.917969 195.867188 C 88.683594 195.8125 88.359375 195.898438 88.183594 196.0625 C 88.023438 196.210938 88.0625 196.375 88.28125 196.425781 C 90.855469 197.003906 93.378906 197.796875 95.867188 198.675781 C 98.632812 199.660156 101.359375 200.757812 104.054688 201.921875 C 106.765625 203.09375 109.449219 204.332031 112.109375 205.617188 C 114.527344 206.789062 116.929688 207.996094 119.316406 209.238281 C 121.210938 210.222656 123.097656 211.230469 124.972656 212.257812 C 125.648438 212.628906 126.320312 213 126.996094 213.378906 C 127.464844 213.640625 127.925781 213.902344 128.335938 214.25 C 128.910156 214.738281 129.390625 215.332031 129.746094 215.992188 C 130.367188 217.160156 130.976562 218.335938 131.589844 219.503906 C 132.332031 220.917969 133.074219 222.332031 133.816406 223.742188 C 133.933594 223.964844 134.039062 224.1875 134.066406 224.441406 C 134.097656 224.730469 134.023438 225.035156 133.871094 225.28125 C 133.796875 225.394531 133.714844 225.496094 133.609375 225.578125 C 133.527344 225.640625 133.429688 225.6875 133.371094 225.699219 C 133.101562 225.761719 132.648438 225.621094 132.335938 225.570312 C 131.972656 225.507812 131.605469 225.449219 131.242188 225.386719 C 129.425781 225.082031 127.605469 224.777344 125.789062 224.476562 C 123.5625 224.105469 121.339844 223.730469 119.113281 223.359375 C 116.671875 222.953125 114.234375 222.546875 111.792969 222.140625 C 109.332031 221.730469 106.871094 221.320312 104.410156 220.910156 C 102.121094 220.53125 99.832031 220.152344 97.539062 219.773438 C 95.613281 219.453125 93.6875 219.136719 91.761719 218.820312 C 90.394531 218.59375 89.027344 218.371094 87.65625 218.148438 C 87.242188 218.082031 86.824219 218.015625 86.40625 217.949219 C 85.398438 217.792969 84.230469 217.644531 83.367188 217.054688 C 82.8125 216.679688 82.613281 216.101562 82.609375 215.429688 C 82.601562 214.582031 82.761719 213.734375 82.773438 212.882812 C 82.78125 212.4375 82.738281 211.992188 82.757812 211.546875 C 82.777344 211.058594 82.835938 210.570312 82.902344 210.085938 C 83.082031 208.8125 83.347656 207.550781 83.628906 206.296875 C 84.230469 203.625 84.9375 200.976562 85.683594 198.339844 C 85.859375 197.710938 86.128906 197.144531 86.667969 196.746094 C 87.148438 196.394531 87.707031 196.304688 88.28125 196.425781 C 88.515625 196.476562 88.835938 196.394531 89.011719 196.230469 C 89.171875 196.082031 89.136719 195.914062 88.917969 195.867188 Z M 88.917969 195.867188 " fill-opacity="0.3" fill-rule="nonzero"/><path fill="#15130d" d="M 108.960938 175.476562 C 111.554688 175.304688 114.152344 175.167969 116.746094 175.035156 C 123.949219 174.664062 131.15625 174.375 138.363281 174.136719 C 149.3125 173.773438 160.261719 173.539062 171.210938 173.421875 C 185.035156 173.273438 198.859375 173.308594 212.683594 173.539062 C 228.632812 173.800781 244.578125 174.324219 260.507812 175.144531 C 262.546875 175.25 264.585938 175.359375 266.621094 175.472656 C 267.152344 175.503906 267.667969 174.71875 266.972656 174.679688 C 250.910156 173.773438 234.828125 173.175781 218.746094 172.84375 C 204.609375 172.550781 190.46875 172.464844 176.332031 172.570312 C 164.921875 172.65625 153.511719 172.867188 142.105469 173.214844 C 134.347656 173.449219 126.589844 173.746094 118.839844 174.128906 C 115.636719 174.289062 112.359375 174.296875 109.171875 174.664062 C 109.128906 174.667969 109.085938 174.671875 109.042969 174.671875 C 108.441406 174.714844 108.257812 175.523438 108.960938 175.476562 Z M 108.960938 175.476562 " fill-opacity="0.2" fill-rule="nonzero"/><path fill="#15130d" d="M 89.511719 197.691406 C 88.179688 197.390625 86.851562 198.199219 86.476562 199.511719 C 85.460938 203.09375 83.640625 209.886719 83.777344 212.179688 C 83.964844 215.355469 82.28125 216.851562 87.136719 217.597656 C 91.21875 218.226562 120.25 223.078125 129.390625 224.605469 C 130.519531 224.796875 131.375 223.609375 130.84375 222.597656 C 130.84375 222.597656 127.097656 215.46875 127.097656 215.46875 C 126.605469 214.535156 125.855469 213.761719 124.933594 213.242188 C 119.757812 210.332031 101.550781 200.398438 89.511719 197.691406 Z M 89.511719 197.691406 " fill-opacity="0.5" fill-rule="nonzero"/><path fill="#15130d" d="M 288.546875 197.691406 C 289.878906 197.390625 291.210938 198.199219 291.582031 199.511719 C 292.597656 203.09375 294.417969 209.886719 294.28125 212.179688 C 294.097656 215.355469 295.777344 216.851562 290.921875 217.597656 C 286.839844 218.226562 257.808594 223.078125 248.667969 224.605469 C 247.539062 224.796875 246.683594 223.609375 247.214844 222.597656 C 247.214844 222.597656 250.960938 215.46875 250.960938 215.46875 C 251.453125 214.535156 252.203125 213.761719 253.125 213.242188 C 258.300781 210.332031 276.507812 200.398438 288.546875 197.691406 Z M 288.546875 197.691406 " fill-opacity="0.5" fill-rule="nonzero"/><g clip-path="url(#569e5dd8c6)"><path fill="#097dba" d="M 187.542969 7.003906 C 87.835938 7.003906 7.003906 87.835938 7.003906 187.542969 C 7.003906 287.253906 87.835938 368.082031 187.542969 368.082031 C 287.253906 368.082031 368.082031 287.253906 368.082031 187.542969 C 368.082031 87.835938 287.253906 7.003906 187.542969 7.003906 Z M 187.542969 330.472656 C 108.605469 330.472656 44.617188 266.480469 44.617188 187.546875 C 44.617188 108.609375 108.605469 44.617188 187.542969 44.617188 C 266.480469 44.617188 330.46875 108.609375 330.46875 187.546875 C 330.46875 266.480469 266.480469 330.472656 187.542969 330.472656 Z M 187.542969 330.472656 " fill-opacity="1" fill-rule="nonzero"/></g><path fill="#097dba" d="M 24.695312 283.628906 L 350.296875 283.628906 C 355.972656 283.628906 361.417969 285.882812 365.429688 289.894531 C 369.445312 293.910156 371.699219 299.355469 371.699219 305.03125 L 371.699219 347.835938 C 371.699219 353.511719 369.445312 358.957031 365.429688 362.972656 C 361.417969 366.984375 355.972656 369.242188 350.296875 369.242188 L 24.695312 369.242188 C 12.875 369.242188 3.292969 359.65625 3.292969 347.835938 L 3.292969 305.03125 C 3.292969 293.210938 12.875 283.628906 24.695312 283.628906 Z M 24.695312 283.628906 " fill-opacity="1" fill-rule="nonzero"/><g fill="#fbfafa" fill-opacity="1"><g transform="translate(24.695954, 344.894125)"><g><path d="M 16.484375 0.15625 L 14.28125 -0.046875 L 13.21875 0.109375 L 6.6875 0 L 5.625 0.109375 L 4.546875 -0.421875 L 4.015625 -2.09375 L 4.015625 -4.8125 L 3.90625 -5.828125 L 3.953125 -35.734375 L 4.4375 -36.859375 L 5.625 -37.34375 L 6.6875 -37.296875 L 7.65625 -37.453125 L 19.84375 -37.34375 L 23 -36.859375 L 24.125 -36.59375 L 25.03125 -36.171875 L 26.109375 -35.953125 L 27.125 -35.359375 L 29.859375 -33.546875 L 32.6875 -30.390625 L 34.5 -27.546875 L 34.9375 -26.53125 L 35.625 -24.5 L 36.375 -20.28125 L 36.4375 -18.71875 L 36.265625 -17.015625 L 36.265625 -15.890625 L 36.109375 -14.8125 L 35.796875 -13.90625 L 35.578125 -12.78125 L 35.3125 -11.765625 L 34.453125 -9.6875 L 33.8125 -8.828125 L 33.28125 -7.75 L 30.65625 -4.390625 L 27.078125 -1.984375 L 24.5625 -0.90625 L 22.359375 -0.53125 L 20.8125 -0.046875 L 19.734375 -0.046875 L 18.078125 0.15625 Z M 16.3125 -8.609375 L 17.921875 -8.671875 L 20.21875 -8.9375 L 21.78125 -9.421875 L 23.59375 -10.59375 L 25.578125 -12.84375 L 26.484375 -14.8125 L 27.015625 -18.5625 L 26.15625 -23.265625 L 25.6875 -24.234375 L 25.140625 -25.140625 L 24.34375 -26.109375 L 23.546875 -26.859375 L 22.734375 -27.453125 L 21.78125 -27.921875 L 19.6875 -28.515625 L 18.140625 -28.671875 L 15.890625 -28.625 L 14.171875 -28.25 L 13.640625 -27.015625 L 13.53125 -26.109375 L 13.640625 -18.71875 L 13.421875 -16.046875 L 13.640625 -13.421875 L 13.59375 -11.234375 L 13.640625 -10.328125 L 14.078125 -9.3125 L 15.296875 -8.71875 Z M 16.3125 -8.609375 "/></g></g></g><g fill="#fbfafa" fill-opacity="1"><g transform="translate(63.590275, 344.894125)"><g><path d="M 4.125 -1.71875 L 3.953125 -5.890625 L 4.0625 -7.015625 L 3.859375 -10.109375 L 4.015625 -12.3125 L 3.859375 -13.484375 L 3.90625 -15.515625 L 4.015625 -16.640625 L 4.015625 -19.3125 L 3.859375 -20.859375 L 4.015625 -35.84375 L 4.4375 -36.96875 L 5.453125 -37.453125 L 6.640625 -37.390625 L 7.65625 -37.5625 L 9.84375 -37.34375 L 10.859375 -37.5 L 14.078125 -37.390625 L 14.984375 -37.5 L 16.15625 -37.390625 L 17.234375 -37.5 L 18.40625 -37.453125 L 19.953125 -37.5 L 21.296875 -37.390625 L 25.734375 -36.484375 L 27.609375 -35.53125 L 30.28125 -33.484375 L 30.765625 -32.6875 L 31.515625 -31.890625 L 32.953125 -28.9375 L 33.21875 -27.875 L 33.390625 -26.859375 L 33.65625 -25.84375 L 33.59375 -21.609375 L 33.015625 -19.578125 L 32.640625 -18.671875 L 32.046875 -17.703125 L 31.671875 -16.6875 L 31.03125 -15.78125 L 29.53125 -14.34375 L 28.9375 -13.21875 L 29.109375 -11.9375 L 30.703125 -9.15625 L 31.40625 -8.296875 L 31.9375 -7.328125 L 32.578125 -6.359375 L 33.0625 -5.453125 L 34.78125 -2.828125 L 35.46875 -1.5 L 35.25 -0.375 L 34.140625 -0.109375 L 32.953125 0 L 30.8125 0 L 29.75 -0.109375 L 28.5625 0 L 26.640625 -0.109375 L 25.3125 -0.421875 L 24.234375 -1.390625 L 23.59375 -2.25 L 23.109375 -3.15625 L 22.421875 -4.171875 L 20.921875 -6.84375 L 20.546875 -7.859375 L 19.15625 -9.734375 L 18.296875 -10.640625 L 16.953125 -11.078125 L 16 -11.015625 L 15.03125 -11.015625 L 13.96875 -10.484375 L 13.484375 -9.421875 L 13.59375 -6.09375 L 13.421875 -3.796875 L 13.640625 -2.671875 L 13.53125 -1.546875 L 13.15625 -0.53125 L 11.5 0 L 9.890625 0 L 8.78125 -0.109375 L 6.578125 0.046875 L 5.5625 0 L 4.5 -0.53125 Z M 15.03125 -19.6875 L 16.203125 -19.6875 L 17.28125 -19.53125 L 21.453125 -19.90625 L 22.25 -20.28125 L 22.890625 -20.921875 L 23.484375 -21.828125 L 23.921875 -22.890625 L 24.078125 -24.34375 L 23.96875 -25.890625 L 23.59375 -26.75 L 23.0625 -27.546875 L 21.40625 -28.5625 L 18.9375 -28.890625 L 16 -28.9375 L 15.140625 -28.890625 L 14.078125 -28.359375 L 13.421875 -27.28125 L 13.59375 -21.296875 L 14.125 -20.171875 Z M 15.03125 -19.6875 "/></g></g></g><g fill="#fbfafa" fill-opacity="1"><g transform="translate(100.665608, 344.894125)"><g><path d="M 2.5625 -1.546875 L 2.5625 -5.671875 L 2.671875 -6.6875 L 3.3125 -7.703125 L 6.84375 -8.828125 L 7.390625 -10 L 7.484375 -12.09375 L 7.28125 -14.390625 L 7.546875 -15.46875 L 7.328125 -17.546875 L 7.4375 -18.625 L 7.484375 -20.8125 L 7.328125 -22.046875 L 7.28125 -22.953125 L 7.4375 -27.5 L 6.734375 -28.46875 L 3.484375 -29.578125 L 2.9375 -30.609375 L 2.9375 -31.625 L 2.828125 -32.6875 L 2.828125 -33.859375 L 2.9375 -34.78125 L 2.9375 -35.796875 L 3.53125 -36.921875 L 4.703125 -37.453125 L 6.796875 -37.34375 L 7.8125 -37.390625 L 11.078125 -37.34375 L 12.25 -37.453125 L 19.046875 -37.390625 L 20.765625 -36.921875 L 21.1875 -35.84375 L 21.296875 -34.78125 L 21.1875 -33.8125 L 21.1875 -30.65625 L 20.59375 -29.640625 L 19.578125 -29.046875 L 18.40625 -29 L 17.390625 -28.40625 L 16.796875 -27.453125 L 16.796875 -25.203125 L 16.90625 -24.078125 L 16.796875 -23 L 16.90625 -21.984375 L 16.796875 -20.328125 L 16.90625 -18.71875 L 16.6875 -16.484375 L 16.90625 -14.34375 L 16.796875 -9.953125 L 17.390625 -8.875 L 20.96875 -7.75 L 21.71875 -6.84375 L 21.5625 -3.578125 L 21.671875 -2.625 L 21.671875 -1.4375 L 21.078125 -0.484375 L 20.0625 0.046875 L 4.171875 -0.046875 L 3.109375 -0.421875 Z M 2.5625 -1.546875 "/></g></g></g><g fill="#fbfafa" fill-opacity="1"><g transform="translate(124.954492, 344.894125)"><g><path d="M 15.09375 -0.96875 L 13.640625 -3.90625 L 13.375 -5.03125 L 12.84375 -5.828125 L 11.453125 -8.9375 L 11.125 -9.953125 L 10.21875 -11.875 L 9.953125 -12.78125 L 6.421875 -20.765625 L 5.890625 -21.609375 L 4.28125 -25.515625 L 3.75 -26.484375 L 2.890625 -28.5625 L 2.296875 -29.578125 L 1.984375 -30.546875 L 1.5 -31.515625 L 0.703125 -33.546875 L 0.21875 -34.5 L 0 -35.796875 L 0.109375 -36.96875 L 1.234375 -37.453125 L 2.359375 -37.5 L 3.3125 -37.390625 L 4.21875 -37.5 L 7.21875 -37.34375 L 8.453125 -36.921875 L 9.359375 -35.84375 L 9.84375 -34.984375 L 10.21875 -34.03125 L 10.75 -33.015625 L 10.90625 -32 L 12.78125 -28.140625 L 13 -27.078125 L 13.375 -26.109375 L 13.859375 -25.25 L 14.5 -23.109375 L 15.09375 -22.15625 L 15.46875 -21.296875 L 15.78125 -20.21875 L 16.203125 -19.265625 L 16.90625 -17.234375 L 17.328125 -16.265625 L 17.96875 -16.375 L 18.625 -17.328125 L 18.890625 -18.296875 L 19.421875 -19.3125 L 25.78125 -34.984375 L 26.046875 -35.953125 L 27.015625 -36.96875 L 28.25 -37.390625 L 34.5625 -37.390625 L 35.46875 -37.078125 L 35.796875 -35.734375 L 35.25 -34.453125 L 35.046875 -33.546875 L 34.5 -32.53125 L 34.140625 -31.453125 L 33.546875 -30.546875 L 33.28125 -29.578125 L 32.46875 -27.5 L 31.78125 -26.703125 L 31.515625 -25.6875 L 30.765625 -24.71875 L 30.5 -23.703125 L 30.234375 -22.796875 L 29.640625 -21.71875 L 29.046875 -19.6875 L 27.921875 -17.765625 L 27.28125 -15.671875 L 24.078125 -8.828125 L 23.75 -7.859375 L 22.890625 -5.9375 L 22.359375 -5.03125 L 21.875 -4.015625 L 20.96875 -1.921875 L 20.65625 -0.90625 L 19.734375 -0.046875 L 18.296875 0.59375 L 17.234375 0.484375 L 15.9375 0 Z M 15.09375 -0.96875 "/></g></g></g><g fill="#fbfafa" fill-opacity="1"><g transform="translate(161.013322, 344.894125)"><g><path d="M 3.859375 -1.546875 L 4.0625 -2.625 L 4.125 -3.6875 L 4.015625 -5.78125 L 4.015625 -6.84375 L 3.90625 -8.078125 L 4.0625 -9.046875 L 4.015625 -10.0625 L 4.125 -11.234375 L 3.953125 -12.359375 L 4.0625 -14.5 L 3.90625 -16.578125 L 4.0625 -17.703125 L 4.0625 -27.28125 L 3.953125 -28.25 L 4.0625 -29.375 L 3.859375 -32.09375 L 4.0625 -33.65625 L 3.953125 -35.796875 L 4.5 -36.96875 L 6.046875 -37.34375 L 13.046875 -37.5 L 14.015625 -37.390625 L 16.109375 -37.453125 L 17.171875 -37.34375 L 19.53125 -37.453125 L 20.59375 -37.296875 L 21.5625 -37.390625 L 25.84375 -37.34375 L 26.96875 -36.859375 L 27.5 -35.796875 L 27.34375 -34.78125 L 27.28125 -33.59375 L 27.453125 -32.578125 L 27.546875 -30.390625 L 26.96875 -29.421875 L 25.84375 -28.84375 L 15.5625 -28.78125 L 13.90625 -28.296875 L 13.375 -26.75 L 13.484375 -25.09375 L 14.125 -24.125 L 15.03125 -23.546875 L 19.265625 -23.59375 L 20.484375 -23.484375 L 21.609375 -23.484375 L 22.6875 -23.59375 L 24.828125 -23.546875 L 25.734375 -22.953125 L 26.21875 -21.9375 L 26.328125 -20.859375 L 26.21875 -16.640625 L 25.6875 -15.625 L 24.609375 -15.03125 L 23.640625 -14.984375 L 22.53125 -15.09375 L 21.078125 -14.984375 L 18.25 -15.140625 L 17.171875 -15.03125 L 15.09375 -15.03125 L 14.125 -14.4375 L 13.640625 -13.328125 L 13.59375 -10.703125 L 14.078125 -9.046875 L 15.1875 -8.40625 L 16.375 -8.5 L 17.546875 -8.40625 L 18.5625 -8.5625 L 25.625 -8.453125 L 27.234375 -7.921875 L 27.921875 -6.84375 L 27.8125 -5.828125 L 27.875 -2.515625 L 27.765625 -1.5 L 27.28125 -0.484375 L 26.15625 0.046875 L 25.140625 0.15625 L 21.875 -0.046875 L 18.625 0.109375 L 17.65625 -0.046875 L 5.5625 0.046875 L 4.546875 -0.53125 Z M 3.859375 -1.546875 "/></g></g></g><g fill="#fbfafa" fill-opacity="1"><g transform="translate(191.668683, 344.894125)"><g/></g></g><g fill="#fbfafa" fill-opacity="1"><g transform="translate(206.167118, 344.894125)"><g><path d="M 5.5625 0.15625 L 4.5 -0.53125 L 3.90625 -1.65625 L 3.953125 -13.484375 L 3.859375 -14.5 L 4.015625 -19.90625 L 3.90625 -20.96875 L 3.953125 -29.53125 L 3.859375 -30.5 L 4.015625 -32.578125 L 3.859375 -35.84375 L 4.4375 -36.96875 L 5.625 -37.5 L 7.109375 -37.078125 L 8.34375 -36.171875 L 9.734375 -34.71875 L 10.59375 -33.96875 L 11.984375 -32.3125 L 12.734375 -31.671875 L 17.59375 -26.265625 L 18.78125 -25.203125 L 19.734375 -23.96875 L 20.484375 -23.21875 L 21.125 -22.3125 L 22.25 -21.875 L 23.21875 -22.53125 L 26.484375 -25.84375 L 27.171875 -26.75 L 31.890625 -31.5625 L 32.640625 -32.53125 L 33.28125 -33.109375 L 33.96875 -33.96875 L 36.21875 -36.328125 L 37.34375 -37.015625 L 38.890625 -37.5 L 40.015625 -36.921875 L 40.65625 -35.796875 L 40.546875 -34.78125 L 40.609375 -32.578125 L 40.546875 -31.671875 L 40.65625 -29.375 L 40.609375 -28.359375 L 40.65625 -23.0625 L 40.546875 -21.875 L 40.65625 -5.828125 L 40.546875 -4.765625 L 40.71875 -1.984375 L 40.078125 -0.421875 L 38.953125 0.15625 L 32.46875 -0.046875 L 31.34375 -0.375 L 30.921875 -1.609375 L 30.921875 -2.40625 L 30.8125 -4.8125 L 30.921875 -5.78125 L 30.8125 -7.75 L 30.921875 -9.84375 L 30.765625 -11.984375 L 30.875 -14.921875 L 30.4375 -15.734375 L 29.75 -15.40625 L 27.546875 -13.15625 L 26.796875 -12.625 L 25.3125 -10.859375 L 24.65625 -10.21875 L 23.921875 -9.421875 L 22.84375 -8.609375 L 21.671875 -8.671875 L 20.546875 -9.46875 L 19.09375 -10.859375 L 18.40625 -11.71875 L 16.203125 -13.90625 L 15.5625 -14.71875 L 14.71875 -15.40625 L 14.171875 -15.625 L 13.703125 -15.140625 L 13.703125 -13.046875 L 13.796875 -11.875 L 13.703125 -9.953125 L 13.75 -8.828125 L 13.59375 -7.171875 L 13.75 -1.546875 L 13.109375 -0.59375 L 11.609375 0.046875 L 9.890625 -0.046875 L 8.71875 0.109375 L 6.640625 0 Z M 5.5625 0.15625 "/></g></g></g><g fill="#fbfafa" fill-opacity="1"><g transform="translate(250.892917, 344.894125)"><g><path d="M 0.703125 -1.4375 L 1.34375 -3.6875 L 1.8125 -4.765625 L 2.46875 -5.625 L 4.015625 -9.515625 L 5.515625 -12.3125 L 5.890625 -13.375 L 6.359375 -14.234375 L 6.6875 -15.359375 L 7.4375 -16.75 L 7.8125 -17.765625 L 8.609375 -19.15625 L 9.46875 -21.078125 L 10.0625 -22.046875 L 10.328125 -22.953125 L 13.328125 -29.6875 L 13.90625 -30.65625 L 16.203125 -35.46875 L 16.53125 -36.4375 L 17.546875 -37.390625 L 19.265625 -37.9375 L 21.078125 -37.453125 L 22.046875 -36.4375 L 22.359375 -35.421875 L 22.84375 -34.609375 L 23.703125 -32.578125 L 24.765625 -30.609375 L 25.578125 -28.734375 L 25.84375 -27.875 L 26.796875 -25.84375 L 27.125 -24.828125 L 28.1875 -22.953125 L 28.46875 -21.9375 L 29 -21.03125 L 29.421875 -20.109375 L 30.015625 -19.15625 L 30.328125 -18.078125 L 30.8125 -17.28125 L 31.1875 -16.203125 L 31.671875 -15.296875 L 32.09375 -14.234375 L 32.6875 -13.375 L 33.4375 -11.390625 L 33.96875 -10.484375 L 34.34375 -9.46875 L 35.25 -7.546875 L 35.578125 -6.53125 L 36.109375 -5.71875 L 36.4375 -4.65625 L 37.125 -3.75 L 37.5 -2.78125 L 37.828125 -1.4375 L 37.609375 -0.328125 L 36.640625 0 L 33.328125 0.109375 L 31.453125 -0.046875 L 30.5 0.046875 L 29.109375 -0.484375 L 28.1875 -1.34375 L 27.609375 -2.296875 L 27.34375 -3.265625 L 26.21875 -4.125 L 24.453125 -4.703125 L 21.9375 -4.59375 L 20.8125 -4.703125 L 19.84375 -4.703125 L 18.625 -4.546875 L 17.5 -4.703125 L 14.5 -4.65625 L 13.421875 -4.765625 L 12.140625 -4.21875 L 11.234375 -3.203125 L 10.328125 -1.390625 L 9.359375 -0.421875 L 8.125 0.109375 L 6.734375 -0.046875 L 2.03125 -0.046875 L 0.96875 -0.328125 Z M 17.234375 -13.21875 L 21.40625 -13.265625 L 22.3125 -13.703125 L 22.421875 -14.65625 L 22.046875 -15.625 L 21.5 -16.6875 L 21.296875 -17.546875 L 20.703125 -18.453125 L 20.015625 -20.546875 L 19.359375 -20.96875 L 18.671875 -20.4375 L 18.1875 -19.578125 L 16.046875 -14.71875 L 16.203125 -13.640625 Z M 17.234375 -13.21875 "/></g></g></g><g fill="#fbfafa" fill-opacity="1"><g transform="translate(289.733744, 344.894125)"><g><path d="M 10.265625 -1.65625 L 10.21875 -5.828125 L 10.328125 -6.90625 L 10.171875 -10.171875 L 10.21875 -11.28125 L 10.171875 -12.359375 L 10.375 -13.96875 L 10.21875 -15.515625 L 10.21875 -17.65625 L 10.328125 -18.71875 L 10.21875 -19.734375 L 10.375 -21.40625 L 10.21875 -27.28125 L 9.6875 -28.296875 L 8.71875 -28.890625 L 3.953125 -28.9375 L 2.5625 -28.78125 L 1.5 -29.3125 L 0.90625 -30.5 L 0.96875 -35.84375 L 1.5 -36.921875 L 2.671875 -37.453125 L 18.625 -37.34375 L 19.84375 -37.5 L 20.921875 -37.5 L 21.984375 -37.390625 L 23.0625 -37.390625 L 24.234375 -37.5625 L 25.25 -37.5625 L 26.109375 -37.453125 L 27.390625 -37.5625 L 28.46875 -37.015625 L 29 -35.953125 L 28.890625 -31.5625 L 29 -30.4375 L 28.46875 -29.375 L 27.234375 -28.890625 L 24.28125 -28.9375 L 23.328125 -28.84375 L 22.25 -28.890625 L 21.34375 -28.84375 L 20.171875 -28.359375 L 19.734375 -27.390625 L 19.84375 -26.21875 L 19.6875 -25.140625 L 19.90625 -14.5 L 19.734375 -12.25 L 19.84375 -11.28125 L 19.734375 -8.03125 L 19.578125 -6.90625 L 19.734375 -5.984375 L 19.796875 -3.859375 L 19.6875 -2.625 L 19.734375 -1.609375 L 19.3125 -0.53125 L 18.25 -0.109375 L 14.921875 -0.109375 L 13.90625 0 L 12.84375 -0.109375 L 11.828125 0 L 10.703125 -0.53125 Z M 10.265625 -1.65625 "/></g></g></g><g fill="#fbfafa" fill-opacity="1"><g transform="translate(319.640102, 344.894125)"><g><path d="M 3.859375 -1.546875 L 4.0625 -2.625 L 4.125 -3.6875 L 4.015625 -5.78125 L 4.015625 -6.84375 L 3.90625 -8.078125 L 4.0625 -9.046875 L 4.015625 -10.0625 L 4.125 -11.234375 L 3.953125 -12.359375 L 4.0625 -14.5 L 3.90625 -16.578125 L 4.0625 -17.703125 L 4.0625 -27.28125 L 3.953125 -28.25 L 4.0625 -29.375 L 3.859375 -32.09375 L 4.0625 -33.65625 L 3.953125 -35.796875 L 4.5 -36.96875 L 6.046875 -37.34375 L 13.046875 -37.5 L 14.015625 -37.390625 L 16.109375 -37.453125 L 17.171875 -37.34375 L 19.53125 -37.453125 L 20.59375 -37.296875 L 21.5625 -37.390625 L 25.84375 -37.34375 L 26.96875 -36.859375 L 27.5 -35.796875 L 27.34375 -34.78125 L 27.28125 -33.59375 L 27.453125 -32.578125 L 27.546875 -30.390625 L 26.96875 -29.421875 L 25.84375 -28.84375 L 15.5625 -28.78125 L 13.90625 -28.296875 L 13.375 -26.75 L 13.484375 -25.09375 L 14.125 -24.125 L 15.03125 -23.546875 L 19.265625 -23.59375 L 20.484375 -23.484375 L 21.609375 -23.484375 L 22.6875 -23.59375 L 24.828125 -23.546875 L 25.734375 -22.953125 L 26.21875 -21.9375 L 26.328125 -20.859375 L 26.21875 -16.640625 L 25.6875 -15.625 L 24.609375 -15.03125 L 23.640625 -14.984375 L 22.53125 -15.09375 L 21.078125 -14.984375 L 18.25 -15.140625 L 17.171875 -15.03125 L 15.09375 -15.03125 L 14.125 -14.4375 L 13.640625 -13.328125 L 13.59375 -10.703125 L 14.078125 -9.046875 L 15.1875 -8.40625 L 16.375 -8.5 L 17.546875 -8.40625 L 18.5625 -8.5625 L 25.625 -8.453125 L 27.234375 -7.921875 L 27.921875 -6.84375 L 27.8125 -5.828125 L 27.875 -2.515625 L 27.765625 -1.5 L 27.28125 -0.484375 L 26.15625 0.046875 L 25.140625 0.15625 L 21.875 -0.046875 L 18.625 0.109375 L 17.65625 -0.046875 L 5.5625 0.046875 L 4.546875 -0.53125 Z M 3.859375 -1.546875 "/></g></g></g></svg>