<svg xmlns="http://www.w3.org/2000/svg" xmlns:xlink="http://www.w3.org/1999/xlink" width="500" zoomAndPan="magnify" viewBox="0 0 375 374.999991" height="500" preserveAspectRatio="xMidYMid meet" version="1.0"><defs><clipPath id="c7aa781d3c"><path d="M 10 304 L 92 304 L 92 329.941406 L 10 329.941406 Z M 10 304 " clip-rule="nonzero"/></clipPath></defs><path fill="#ff6600" d="M 25.332031 297.738281 C 30.285156 298.617188 37.792969 300.082031 45.402344 300.847656 C 53.007812 301.609375 60.714844 301.671875 68.589844 300.71875 C 76.464844 299.765625 84.515625 297.800781 90.949219 294.628906 C 97.382812 291.460938 102.203125 287.082031 108.175781 282.609375 C 114.140625 278.140625 121.253906 273.574219 129.050781 269.085938 C 136.847656 264.59375 145.324219 260.179688 154.191406 257.65625 C 155.472656 257.292969 156.765625 256.96875 158.066406 256.679688 C 154.628906 260.078125 151.136719 264.273438 148.28125 268.425781 C 143.945312 274.734375 141.078125 280.945312 138.902344 286.214844 C 136.722656 291.488281 135.238281 295.820312 134.496094 297.988281 C 133.75 300.152344 133.75 300.152344 136.457031 298.808594 C 139.167969 297.464844 144.582031 294.777344 154.058594 291.910156 C 163.535156 289.046875 177.078125 286 190.496094 283.484375 C 210.4375 279.742188 231.792969 276.445312 249.882812 268.414062 C 276.320312 256.671875 312.171875 234.203125 328.453125 207.140625 C 349.511719 172.132812 325.71875 141.347656 309.4375 117.847656 C 292.40625 93.261719 254.910156 73.09375 223.828125 72.480469 C 188.054688 71.773438 127.621094 113.738281 104.496094 139.921875 C 102.070312 142.671875 102.070312 142.671875 104.746094 141.714844 C 107.421875 140.753906 112.777344 138.835938 119.113281 137.835938 C 124.242188 137.023438 130.015625 136.820312 137.664062 138.230469 C 132.886719 140.203125 127.8125 143.027344 122.78125 146.523438 C 113.671875 152.863281 104.714844 161.40625 97.523438 173.648438 C 90.328125 185.882812 84.902344 201.8125 79.160156 216.722656 C 73.417969 231.640625 67.359375 245.535156 61.625 256.03125 C 55.886719 266.53125 50.464844 273.628906 45.136719 279.578125 C 39.808594 285.523438 34.570312 290.316406 29.660156 292.902344 C 27.9375 293.8125 24.148438 294.941406 21.25 295.527344 C 17.921875 296.199219 15.625 296.261719 16.777344 296.410156 C 17.972656 296.558594 20.378906 296.855469 25.332031 297.738281 " fill-opacity="1" fill-rule="evenodd"/><path fill="#ffcc00" d="M 121.28125 235.785156 C 144.1875 214.289062 164.386719 195.941406 197.449219 207 C 188.839844 219.578125 186.625 222.945312 171.292969 226.355469 C 201.359375 234.742188 222.445312 232.046875 236.109375 223.625 C 255.269531 211.820312 261.324219 189.296875 255.375 169.554688 C 249.289062 149.34375 230.6875 132.066406 205.90625 134.535156 C 161.371094 138.960938 131.960938 194.839844 121.28125 235.785156 " fill-opacity="1" fill-rule="evenodd"/><path fill="#ffcc00" d="M 129.519531 309.695312 C 137.339844 308.53125 147.527344 309.414062 154.398438 306.464844 C 162.058594 303.171875 166.726562 297.078125 181.214844 296.699219 C 158.078125 292.351562 148.4375 298.519531 129.519531 309.695312 " fill-opacity="1" fill-rule="evenodd"/><g clip-path="url(#c7aa781d3c)"><path fill="#ff6600" d="M 10.113281 329.648438 C 21.804688 324.820312 35.003906 315.25 46.910156 313.644531 C 60.167969 311.859375 71.703125 316.375 91.863281 304.996094 C 63.851562 329.945312 45.457031 329.417969 10.113281 329.648438 " fill-opacity="1" fill-rule="evenodd"/></g><path fill="#ffcc00" d="M 63.855469 191.246094 C 70.234375 186.542969 79.570312 182.597656 84.351562 176.710938 C 89.675781 170.152344 91.164062 162.4375 103.742188 155.339844 C 81.527344 162.167969 75.695312 172.265625 63.855469 191.246094 " fill-opacity="1" fill-rule="evenodd"/><path fill="#fe3b00" d="M 18.785156 296.671875 C 22.789062 295.570312 26.621094 294.515625 30.121094 293.507812 C 83.382812 278.082031 90.554688 181.433594 151.519531 143.152344 C 159.152344 138.359375 167.953125 134.609375 172.351562 132.734375 C 176.75 130.859375 176.75 130.859375 175.257812 129.878906 C 173.765625 128.902344 170.777344 126.941406 167.042969 125.164062 C 163.308594 123.382812 158.828125 121.78125 156.589844 120.980469 C 154.347656 120.179688 154.347656 120.179688 158.566406 118.410156 C 162.78125 116.636719 171.210938 113.097656 181.128906 110.296875 C 245.867188 91.996094 291.488281 143.378906 293.652344 204.992188 C 297.546875 179.945312 291.21875 153.035156 276.523438 131.820312 C 268.988281 120.945312 260.140625 98.582031 249.933594 76.976562 C 241.117188 74.246094 232.238281 72.644531 223.828125 72.480469 C 188.054688 71.773438 127.621094 113.738281 104.496094 139.921875 L 104.382812 140.050781 L 104.273438 140.175781 L 104.171875 140.292969 L 104.070312 140.40625 L 103.972656 140.519531 L 103.878906 140.625 L 103.789062 140.730469 L 103.699219 140.828125 L 103.699219 140.832031 L 103.617188 140.925781 L 103.539062 141.015625 L 103.535156 141.019531 L 103.386719 141.191406 L 103.320312 141.273438 L 103.253906 141.351562 L 103.195312 141.425781 L 103.136719 141.496094 L 103.132812 141.496094 L 103.082031 141.566406 L 103.078125 141.566406 L 103.03125 141.632812 L 102.984375 141.691406 L 102.941406 141.75 L 102.898438 141.804688 L 102.863281 141.859375 L 102.804688 141.949219 L 102.777344 141.996094 L 102.738281 142.066406 L 102.726562 142.101562 L 102.714844 142.132812 L 102.707031 142.160156 L 102.707031 142.207031 L 102.710938 142.226562 L 102.710938 142.230469 L 102.722656 142.246094 C 102.726562 142.257812 102.738281 142.265625 102.75 142.269531 L 102.765625 142.277344 L 102.792969 142.285156 C 102.808594 142.289062 102.828125 142.292969 102.847656 142.292969 L 102.886719 142.292969 L 102.921875 142.289062 L 102.96875 142.285156 L 103.011719 142.277344 L 103.0625 142.269531 L 103.117188 142.253906 L 103.175781 142.242188 L 103.234375 142.222656 L 103.300781 142.203125 L 103.371094 142.1875 L 103.441406 142.164062 L 103.519531 142.140625 L 103.601562 142.113281 L 103.6875 142.085938 L 103.773438 142.054688 L 103.960938 141.992188 L 104.0625 141.957031 L 104.273438 141.878906 L 104.5 141.800781 L 104.621094 141.757812 L 104.746094 141.714844 L 104.871094 141.667969 L 105.003906 141.621094 L 105.140625 141.570312 L 105.277344 141.523438 L 105.421875 141.472656 L 105.421875 141.46875 L 105.714844 141.367188 L 106.027344 141.257812 L 106.03125 141.257812 L 106.1875 141.199219 L 106.351562 141.140625 L 106.355469 141.140625 L 106.523438 141.085938 L 106.695312 141.023438 L 106.871094 140.964844 L 107.046875 140.902344 L 107.230469 140.839844 L 107.414062 140.78125 L 107.601562 140.71875 L 107.792969 140.652344 L 107.988281 140.589844 L 108.386719 140.457031 L 108.589844 140.394531 L 109.007812 140.261719 L 109.21875 140.195312 L 109.222656 140.195312 L 109.4375 140.128906 L 109.65625 140.058594 L 109.875 139.992188 L 110.328125 139.859375 L 110.558594 139.789062 L 110.789062 139.722656 L 111.027344 139.652344 L 111.261719 139.585938 L 111.503906 139.519531 L 111.746094 139.449219 L 112.238281 139.316406 L 112.488281 139.25 L 112.742188 139.183594 L 112.996094 139.113281 L 113.511719 138.984375 L 113.515625 138.984375 L 113.773438 138.921875 L 114.039062 138.855469 L 114.304688 138.792969 L 114.574219 138.730469 L 114.839844 138.664062 L 115.386719 138.542969 L 115.386719 138.539062 L 115.941406 138.421875 L 115.945312 138.421875 L 116.21875 138.363281 L 116.222656 138.363281 L 116.5 138.304688 L 116.503906 138.304688 L 116.785156 138.25 L 117.070312 138.195312 L 117.074219 138.195312 L 117.644531 138.085938 L 117.648438 138.085938 L 118.226562 137.980469 L 118.519531 137.929688 L 118.816406 137.882812 L 119.109375 137.835938 L 119.113281 137.835938 L 119.59375 137.757812 L 119.839844 137.722656 L 120.082031 137.691406 L 120.574219 137.621094 L 120.820312 137.59375 L 121.320312 137.53125 L 121.820312 137.476562 L 122.074219 137.449219 L 122.332031 137.425781 L 122.585938 137.402344 L 122.84375 137.375 L 123.101562 137.355469 L 123.363281 137.335938 L 123.621094 137.316406 L 123.882812 137.300781 L 124.414062 137.265625 L 124.679688 137.253906 L 124.683594 137.253906 L 125.222656 137.230469 L 125.492188 137.222656 L 125.765625 137.214844 L 125.769531 137.214844 L 126.042969 137.207031 L 126.597656 137.199219 L 127.445312 137.199219 L 127.734375 137.203125 L 128.019531 137.207031 L 128.308594 137.210938 L 128.601562 137.21875 L 129.191406 137.242188 L 129.488281 137.257812 L 130.089844 137.289062 L 130.390625 137.308594 L 130.394531 137.308594 L 130.699219 137.328125 L 131.007812 137.347656 L 131.316406 137.375 L 131.945312 137.429688 L 132.261719 137.457031 L 132.582031 137.492188 L 133.226562 137.5625 L 133.882812 137.640625 L 134.214844 137.683594 L 134.546875 137.730469 C 135.550781 137.867188 136.585938 138.03125 137.664062 138.230469 L 137.664062 138.234375 C 137.367188 138.355469 137.070312 138.484375 136.769531 138.613281 L 136.765625 138.613281 C 136.464844 138.742188 136.164062 138.875 135.863281 139.011719 L 135.859375 139.011719 L 135.40625 139.21875 L 135.175781 139.324219 L 134.492188 139.648438 L 134.03125 139.867188 L 133.570312 140.09375 L 132.878906 140.441406 L 132.414062 140.679688 L 132.179688 140.800781 L 131.949219 140.921875 L 131.484375 141.167969 L 131.253906 141.296875 L 131.019531 141.421875 L 130.554688 141.675781 L 130.316406 141.804688 L 130.085938 141.9375 L 129.851562 142.066406 L 129.378906 142.335938 L 129.148438 142.472656 L 128.910156 142.605469 L 128.910156 142.609375 L 128.441406 142.882812 L 127.972656 143.164062 L 127.5 143.449219 L 126.792969 143.882812 L 126.558594 144.03125 L 126.320312 144.179688 L 125.617188 144.628906 L 125.378906 144.78125 L 125.144531 144.933594 L 124.667969 145.246094 L 123.964844 145.714844 L 123.726562 145.878906 L 123.492188 146.035156 L 123.253906 146.199219 L 123.019531 146.363281 L 122.78125 146.523438 L 122.355469 146.824219 L 121.5 147.429688 L 121.078125 147.738281 L 120.652344 148.050781 L 120.226562 148.367188 L 120.222656 148.367188 L 119.375 149.007812 L 118.953125 149.335938 L 118.527344 149.664062 L 118.105469 149.996094 L 117.6875 150.332031 L 117.261719 150.671875 C 116.984375 150.898438 116.703125 151.128906 116.421875 151.363281 L 116.003906 151.714844 L 115.585938 152.070312 L 115.167969 152.429688 L 114.75 152.792969 L 114.335938 153.15625 L 113.921875 153.527344 L 113.507812 153.902344 C 113.230469 154.15625 112.957031 154.410156 112.683594 154.664062 C 112.269531 155.046875 111.863281 155.4375 111.453125 155.835938 L 111.046875 156.234375 L 110.640625 156.640625 L 110.238281 157.046875 L 109.835938 157.457031 L 109.433594 157.871094 C 108.765625 158.566406 108.101562 159.285156 107.449219 160.015625 C 107.183594 160.308594 106.921875 160.605469 106.664062 160.90625 C 106.402344 161.207031 106.144531 161.507812 105.886719 161.816406 L 105.5 162.273438 L 105.117188 162.738281 L 104.734375 163.207031 L 104.355469 163.683594 L 103.972656 164.160156 L 103.222656 165.136719 L 102.847656 165.628906 L 102.480469 166.128906 L 102.109375 166.632812 L 101.746094 167.140625 L 101.378906 167.652344 L 101.015625 168.171875 L 100.660156 168.699219 L 100.300781 169.226562 L 99.945312 169.761719 L 99.589844 170.300781 L 99.242188 170.84375 C 99.007812 171.210938 98.777344 171.578125 98.546875 171.945312 L 98.546875 171.949219 C 98.203125 172.503906 97.859375 173.070312 97.523438 173.648438 C 96.398438 175.558594 95.320312 177.558594 94.273438 179.632812 C 93.121094 181.914062 92.015625 184.285156 90.941406 186.71875 L 90.648438 187.382812 C 90.257812 188.273438 89.871094 189.167969 89.492188 190.074219 L 89.488281 190.074219 L 89.207031 190.75 L 88.921875 191.433594 L 88.355469 192.804688 C 88.167969 193.261719 87.984375 193.722656 87.796875 194.183594 L 87.519531 194.875 L 87.242188 195.570312 C 86.964844 196.265625 86.6875 196.964844 86.414062 197.664062 L 86.140625 198.363281 L 85.597656 199.769531 L 84.785156 201.882812 L 84.246094 203.296875 L 83.976562 204.007812 L 83.707031 204.714844 L 83.4375 205.425781 L 83.171875 206.132812 L 82.90625 206.84375 L 82.636719 207.550781 L 82.371094 208.261719 L 82.105469 208.96875 L 81.835938 209.679688 L 81.304688 211.09375 L 81.039062 211.804688 L 79.964844 214.621094 L 79.695312 215.324219 L 79.429688 216.023438 L 78.621094 218.121094 L 78.351562 218.816406 L 77.808594 220.199219 L 77.535156 220.890625 L 77.265625 221.578125 L 77.265625 221.582031 L 76.722656 222.949219 L 76.449219 223.632812 L 76.175781 224.3125 L 75.625 225.667969 L 74.804688 227.683594 L 74.53125 228.347656 L 74.253906 229.011719 L 73.980469 229.675781 L 73.703125 230.335938 L 73.425781 230.992188 L 73.425781 230.996094 L 73.152344 231.648438 L 72.875 232.296875 L 72.875 232.300781 L 72.601562 232.949219 L 72.050781 234.238281 L 71.773438 234.878906 L 71.21875 236.152344 L 70.945312 236.78125 L 70.667969 237.40625 L 70.667969 237.410156 L 70.390625 238.035156 L 70.113281 238.65625 L 69.558594 239.890625 L 69.285156 240.5 L 69.007812 241.109375 L 68.730469 241.714844 L 68.453125 242.316406 L 68.179688 242.914062 L 67.90625 243.507812 L 67.628906 244.097656 L 67.351562 244.683594 L 67.074219 245.265625 L 66.800781 245.847656 L 66.527344 246.421875 L 66.25 246.992188 L 65.976562 247.558594 L 65.703125 248.121094 L 65.429688 248.679688 L 65.425781 248.679688 L 64.882812 249.785156 L 64.605469 250.332031 L 64.335938 250.871094 L 63.789062 251.941406 L 63.515625 252.46875 L 63.246094 252.992188 L 62.972656 253.507812 L 62.703125 254.023438 L 62.433594 254.535156 L 62.164062 255.039062 L 61.625 256.03125 L 61.355469 256.519531 L 61.355469 256.523438 L 61.089844 257.007812 L 61.085938 257.007812 L 60.820312 257.484375 L 60.820312 257.488281 L 60.550781 257.960938 L 60.285156 258.429688 L 60.019531 258.894531 L 60.019531 258.898438 L 59.488281 259.8125 L 59.484375 259.8125 L 59.222656 260.261719 L 59.21875 260.265625 L 58.957031 260.710938 L 58.691406 261.15625 L 58.429688 261.589844 L 58.429688 261.59375 L 58.164062 262.027344 L 57.902344 262.457031 L 57.640625 262.882812 L 57.375 263.300781 L 57.113281 263.71875 L 56.855469 264.132812 L 56.851562 264.132812 L 56.589844 264.539062 L 56.589844 264.542969 L 56.332031 264.949219 L 55.808594 265.746094 L 55.550781 266.140625 L 55.292969 266.527344 L 55.03125 266.914062 L 54.515625 267.671875 L 54.253906 268.046875 L 54 268.417969 L 53.742188 268.785156 L 53.226562 269.511719 L 52.96875 269.867188 L 52.714844 270.222656 L 52.457031 270.574219 L 52.203125 270.921875 L 51.945312 271.265625 L 51.4375 271.945312 L 51.183594 272.28125 L 50.929688 272.613281 L 50.167969 273.597656 L 49.660156 274.234375 L 49.410156 274.550781 L 49.40625 274.550781 L 49.152344 274.867188 L 48.652344 275.484375 C 48.3125 275.894531 47.976562 276.296875 47.644531 276.699219 L 47.640625 276.699219 L 47.140625 277.289062 L 46.890625 277.582031 L 46.386719 278.164062 C 46.054688 278.546875 45.722656 278.925781 45.386719 279.300781 L 45.136719 279.578125 C 44.890625 279.855469 44.636719 280.132812 44.390625 280.40625 L 43.890625 280.949219 L 43.640625 281.21875 L 43.144531 281.75 L 42.648438 282.277344 L 42.398438 282.539062 L 41.90625 283.046875 L 41.90625 283.050781 L 41.65625 283.300781 L 41.410156 283.554688 L 40.667969 284.296875 L 40.175781 284.78125 L 40.175781 284.785156 L 39.929688 285.019531 L 39.683594 285.257812 L 39.441406 285.496094 L 39.195312 285.722656 L 39.195312 285.726562 L 38.949219 285.957031 L 38.703125 286.183594 L 38.460938 286.410156 L 37.972656 286.851562 L 37.730469 287.070312 L 37.726562 287.070312 L 37.488281 287.285156 C 36.757812 287.933594 36.03125 288.542969 35.3125 289.117188 L 35.074219 289.308594 L 34.832031 289.496094 L 34.355469 289.863281 C 34.039062 290.105469 33.71875 290.339844 33.402344 290.566406 L 32.929688 290.898438 L 32.691406 291.0625 L 32.457031 291.222656 C 31.515625 291.855469 30.585938 292.417969 29.664062 292.90625 C 29.554688 292.960938 29.441406 293.015625 29.316406 293.078125 C 29.191406 293.132812 29.0625 293.195312 28.925781 293.253906 L 28.921875 293.253906 L 28.820312 293.296875 L 28.714844 293.34375 L 28.710938 293.34375 L 28.605469 293.390625 L 28.492188 293.433594 L 28.382812 293.480469 L 28.265625 293.523438 L 28.027344 293.617188 L 27.90625 293.660156 L 27.65625 293.753906 L 27.53125 293.796875 L 27.402344 293.84375 L 27.269531 293.890625 L 27.140625 293.933594 L 27.003906 293.980469 L 26.871094 294.023438 L 26.871094 294.027344 L 26.597656 294.113281 L 26.460938 294.160156 L 26.179688 294.246094 L 26.179688 294.25 L 25.898438 294.335938 L 25.464844 294.46875 L 25.316406 294.507812 L 25.171875 294.554688 L 25.023438 294.597656 L 24.878906 294.636719 L 24.730469 294.679688 L 24.585938 294.71875 L 24.433594 294.761719 L 24.140625 294.84375 L 23.992188 294.878906 L 23.839844 294.921875 L 23.398438 295.035156 L 23.25 295.070312 L 23.101562 295.109375 L 22.957031 295.144531 L 22.953125 295.144531 L 22.664062 295.214844 C 22.179688 295.332031 21.703125 295.433594 21.253906 295.527344 C 21.042969 295.570312 20.839844 295.609375 20.640625 295.644531 C 20.390625 295.691406 20.148438 295.734375 19.914062 295.777344 L 19.640625 295.824219 L 19.503906 295.84375 L 19.371094 295.867188 L 19.238281 295.886719 L 19.113281 295.910156 L 18.984375 295.925781 L 18.742188 295.964844 L 18.738281 295.964844 L 18.621094 295.980469 L 18.390625 296.015625 L 18.171875 296.046875 L 17.964844 296.074219 L 17.867188 296.089844 L 17.769531 296.101562 L 17.675781 296.117188 L 17.496094 296.140625 L 17.332031 296.164062 L 17.183594 296.1875 L 17.179688 296.1875 L 17.113281 296.195312 L 17.109375 296.195312 L 17.042969 296.207031 L 16.976562 296.214844 L 16.917969 296.226562 L 16.808594 296.242188 L 16.757812 296.25 L 16.714844 296.257812 L 16.710938 296.257812 L 16.632812 296.273438 L 16.570312 296.289062 L 16.542969 296.296875 L 16.519531 296.304688 L 16.503906 296.308594 L 16.492188 296.316406 L 16.476562 296.328125 L 16.476562 296.335938 L 16.480469 296.34375 L 16.519531 296.363281 L 16.542969 296.367188 L 16.570312 296.375 L 16.601562 296.382812 L 16.636719 296.386719 L 16.679688 296.394531 L 16.726562 296.398438 L 16.777344 296.40625 L 16.777344 296.410156 L 16.820312 296.414062 L 16.835938 296.414062 L 16.84375 296.417969 L 16.867188 296.417969 L 16.890625 296.421875 L 16.894531 296.421875 L 16.9375 296.425781 L 16.957031 296.429688 L 16.960938 296.429688 L 17.007812 296.4375 L 17.03125 296.4375 L 17.058594 296.441406 L 17.082031 296.445312 L 17.109375 296.449219 L 17.132812 296.453125 L 17.160156 296.453125 L 17.1875 296.457031 L 17.214844 296.464844 L 17.242188 296.464844 L 17.269531 296.46875 L 17.285156 296.472656 L 17.296875 296.472656 L 17.351562 296.480469 L 17.378906 296.480469 L 17.40625 296.488281 L 17.433594 296.492188 L 17.4375 296.492188 L 17.464844 296.496094 L 17.496094 296.5 L 17.523438 296.5 L 17.554688 296.507812 L 17.585938 296.507812 L 17.617188 296.515625 L 17.648438 296.519531 L 17.667969 296.519531 L 17.679688 296.523438 L 17.742188 296.53125 L 17.75 296.53125 L 17.777344 296.535156 L 17.808594 296.539062 L 17.835938 296.542969 L 17.84375 296.546875 L 17.875 296.546875 L 17.910156 296.554688 L 17.921875 296.554688 L 17.945312 296.558594 L 17.980469 296.5625 L 18.011719 296.566406 L 18.015625 296.566406 L 18.046875 296.574219 L 18.082031 296.578125 L 18.105469 296.582031 L 18.117188 296.582031 L 18.15625 296.585938 L 18.191406 296.589844 L 18.199219 296.589844 L 18.230469 296.597656 L 18.265625 296.601562 L 18.292969 296.605469 L 18.304688 296.609375 L 18.382812 296.617188 L 18.390625 296.617188 L 18.417969 296.621094 L 18.457031 296.628906 L 18.492188 296.632812 L 18.5 296.636719 L 18.539062 296.640625 L 18.597656 296.648438 L 18.617188 296.652344 L 18.699219 296.664062 L 18.703125 296.664062 L 18.742188 296.667969 Z M 158.007812 256.691406 L 158.066406 256.679688 L 157.585938 257.160156 L 157.585938 257.164062 L 157.421875 257.324219 L 157.261719 257.488281 L 157.101562 257.65625 L 156.9375 257.820312 L 156.9375 257.824219 L 156.777344 257.988281 L 156.292969 258.5 L 155.8125 259.015625 L 155.488281 259.363281 L 155.167969 259.71875 L 155.011719 259.894531 L 154.691406 260.253906 C 154.476562 260.492188 154.265625 260.734375 154.054688 260.976562 L 153.421875 261.710938 L 152.957031 262.269531 L 152.957031 262.273438 L 152.800781 262.457031 L 152.644531 262.644531 C 152.28125 263.082031 151.925781 263.527344 151.574219 263.972656 L 151.125 264.546875 C 150.824219 264.929688 150.53125 265.320312 150.238281 265.703125 L 149.949219 266.09375 L 149.519531 266.675781 C 149.335938 266.933594 149.144531 267.195312 148.960938 267.453125 C 148.734375 267.777344 148.503906 268.105469 148.28125 268.425781 C 148.078125 268.722656 147.878906 269.019531 147.683594 269.3125 L 147.484375 269.605469 L 147.097656 270.195312 L 146.910156 270.492188 L 146.722656 270.785156 L 146.351562 271.371094 L 146.171875 271.667969 L 145.992188 271.960938 L 145.8125 272.25 L 145.640625 272.542969 L 145.464844 272.832031 L 145.292969 273.125 L 145.121094 273.414062 L 144.953125 273.707031 L 144.296875 274.863281 L 143.980469 275.4375 L 143.828125 275.722656 L 143.828125 275.726562 L 143.671875 276.007812 L 143.519531 276.296875 L 143.367188 276.582031 L 143.222656 276.863281 L 143.074219 277.144531 L 142.929688 277.425781 L 142.78125 277.710938 L 142.5 278.273438 L 142.359375 278.550781 L 142.085938 279.109375 L 141.949219 279.382812 L 141.683594 279.9375 L 141.550781 280.210938 L 141.421875 280.484375 L 141.296875 280.753906 C 141.085938 281.207031 140.875 281.65625 140.675781 282.101562 C 140.035156 283.523438 139.445312 284.902344 138.90625 286.214844 C 138.597656 286.957031 138.304688 287.679688 138.027344 288.382812 L 137.839844 288.847656 L 137.664062 289.304688 L 137.398438 289.976562 L 137.316406 290.195312 L 137.230469 290.414062 L 137.066406 290.847656 L 136.984375 291.0625 L 136.90625 291.269531 L 136.824219 291.480469 L 136.75 291.6875 L 136.746094 291.6875 L 136.667969 291.890625 L 136.59375 292.097656 L 136.445312 292.496094 L 136.375 292.6875 L 136.375 292.691406 L 136.304688 292.886719 L 136.230469 293.078125 L 136.160156 293.265625 L 136.027344 293.640625 L 135.957031 293.824219 L 135.894531 294.003906 L 135.828125 294.179688 L 135.703125 294.53125 L 135.640625 294.699219 L 135.582031 294.871094 L 135.523438 295.035156 L 135.410156 295.359375 L 135.300781 295.671875 L 135.296875 295.671875 L 135.246094 295.828125 L 135.191406 295.976562 L 135.140625 296.125 L 135.089844 296.265625 L 135.039062 296.410156 L 134.945312 296.683594 L 134.851562 296.949219 L 134.765625 297.199219 L 134.683594 297.441406 L 134.605469 297.667969 L 134.566406 297.777344 L 134.496094 297.988281 L 134.425781 298.183594 L 134.394531 298.277344 L 134.363281 298.367188 L 134.335938 298.457031 L 134.304688 298.539062 L 134.28125 298.621094 L 134.230469 298.773438 L 134.207031 298.847656 L 134.1875 298.917969 L 134.167969 298.984375 L 134.148438 299.046875 L 134.132812 299.105469 L 134.121094 299.164062 L 134.105469 299.21875 L 134.09375 299.269531 L 134.085938 299.320312 L 134.082031 299.363281 L 134.078125 299.410156 L 134.070312 299.445312 L 134.070312 299.519531 L 134.078125 299.550781 L 134.078125 299.554688 L 134.085938 299.609375 L 134.109375 299.65625 C 134.203125 299.792969 134.46875 299.738281 134.976562 299.519531 L 135.125 299.457031 L 135.125 299.453125 L 135.289062 299.378906 L 135.289062 299.375 L 135.378906 299.335938 L 135.472656 299.292969 L 135.5625 299.246094 L 135.765625 299.148438 L 135.984375 299.046875 L 136.09375 298.988281 L 136.210938 298.929688 L 136.457031 298.808594 C 139.167969 297.464844 144.582031 294.777344 154.058594 291.910156 C 163.535156 289.046875 177.078125 286 190.496094 283.484375 C 210.4375 279.742188 231.792969 276.445312 249.882812 268.414062 C 257.996094 264.808594 267 260.191406 276.046875 254.746094 C 237.65625 267.8125 217.996094 271.644531 168.613281 275.003906 C 159.507812 275.625 152.019531 280.25 152.289062 279.519531 C 156.648438 267.59375 174.621094 250.667969 185.835938 243.28125 C 188.410156 241.589844 188.410156 241.589844 182.808594 241.472656 C 145.148438 240.671875 122.816406 264.046875 107.921875 282.792969 L 108.171875 282.609375 L 108.734375 282.191406 C 109.964844 281.28125 111.234375 280.367188 112.550781 279.453125 L 113.164062 279.03125 L 114.089844 278.398438 L 114.714844 277.972656 L 115.664062 277.339844 L 115.980469 277.125 L 116.300781 276.917969 L 116.304688 276.917969 L 116.949219 276.492188 L 116.949219 276.488281 L 117.273438 276.28125 L 117.597656 276.066406 L 118.253906 275.644531 L 118.585938 275.433594 L 118.917969 275.21875 L 119.25 275.007812 L 119.585938 274.796875 L 119.917969 274.582031 L 120.253906 274.371094 L 120.933594 273.945312 L 121.613281 273.523438 L 121.957031 273.3125 L 122.300781 273.097656 L 122.644531 272.886719 L 123.339844 272.464844 L 123.6875 272.25 L 124.039062 272.042969 L 124.386719 271.828125 L 124.742188 271.617188 L 125.09375 271.40625 L 125.804688 270.984375 L 126.160156 270.769531 L 126.875 270.351562 L 127.238281 270.136719 L 127.597656 269.925781 L 127.960938 269.714844 L 128.320312 269.503906 L 128.6875 269.296875 L 129.050781 269.085938 L 130.152344 268.453125 L 130.890625 268.03125 L 131.632812 267.617188 L 132.003906 267.40625 L 133.128906 266.785156 L 133.886719 266.371094 L 134.261719 266.167969 L 134.644531 265.964844 L 135.023438 265.757812 L 135.402344 265.558594 L 136.167969 265.152344 L 136.933594 264.753906 L 137.707031 264.355469 L 138.484375 263.964844 L 138.871094 263.769531 L 140.042969 263.195312 L 140.433594 263.007812 L 140.828125 262.820312 L 141.21875 262.632812 L 141.222656 262.632812 L 141.613281 262.445312 L 142.007812 262.265625 L 142.40625 262.082031 L 142.800781 261.902344 L 143.597656 261.546875 L 143.996094 261.371094 L 144.796875 261.027344 L 145.199219 260.855469 L 145.597656 260.6875 L 146.003906 260.519531 L 146.808594 260.191406 L 147.621094 259.875 L 148.023438 259.71875 L 148.429688 259.5625 L 149.246094 259.261719 L 149.65625 259.117188 C 149.929688 259.015625 150.203125 258.921875 150.476562 258.828125 L 150.886719 258.691406 L 150.886719 258.6875 C 151.160156 258.597656 151.433594 258.503906 151.707031 258.417969 C 151.980469 258.324219 152.253906 258.238281 152.53125 258.152344 C 153.085938 257.980469 153.636719 257.816406 154.191406 257.65625 L 154.792969 257.488281 L 155.035156 257.425781 L 155.335938 257.34375 L 155.457031 257.3125 L 155.636719 257.261719 L 155.757812 257.234375 L 155.820312 257.214844 L 155.878906 257.203125 L 155.878906 257.199219 L 156 257.171875 L 156.0625 257.15625 L 156.0625 257.152344 L 156.179688 257.125 L 156.304688 257.09375 L 156.363281 257.078125 L 156.425781 257.0625 L 156.484375 257.050781 L 156.542969 257.035156 L 156.609375 257.019531 L 156.667969 257.003906 L 156.789062 256.976562 L 156.789062 256.972656 L 156.851562 256.960938 L 156.972656 256.933594 L 157.03125 256.917969 L 157.09375 256.902344 L 157.15625 256.890625 L 157.273438 256.859375 L 157.339844 256.84375 L 157.519531 256.804688 L 157.519531 256.800781 L 157.582031 256.789062 L 157.703125 256.761719 L 157.761719 256.75 L 157.761719 256.746094 L 157.824219 256.734375 L 157.945312 256.707031 L 158.007812 256.695312 Z M 158.066406 256.679688 L 158.066406 256.679688 " fill-opacity="1" fill-rule="evenodd"/><path fill="#000000" d="M 170.480469 135.570312 C 172.394531 110.925781 183.730469 87.039062 204.007812 69.714844 C 224.289062 52.386719 249.6875 44.910156 274.339844 46.835938 C 298.988281 48.757812 322.90625 60.070312 340.246094 80.324219 C 357.597656 100.59375 365.085938 125.960938 363.152344 150.578125 C 361.230469 175.203125 349.898438 199.109375 329.617188 216.433594 C 309.339844 233.757812 283.949219 241.234375 259.292969 239.3125 C 234.652344 237.402344 210.722656 226.082031 193.371094 205.8125 C 176.03125 185.558594 168.554688 160.199219 170.480469 135.570312 " fill-opacity="1" fill-rule="nonzero"/><path fill="#ffffff" d="M 218.011719 66.84375 C 229.449219 63.011719 241.851562 65.058594 252.789062 69.515625 C 253.375 69.75 253.753906 70.253906 253.824219 70.882812 C 254.132812 73.632812 254.316406 76.398438 254.40625 79.167969 C 254.527344 82.832031 254.4375 86.503906 254.257812 90.167969 C 254.230469 90.734375 253.953125 91.203125 253.476562 91.507812 C 241.542969 99.074219 230.1875 111.347656 220.867188 121.941406 C 220.5625 122.289062 220.171875 122.476562 219.707031 122.507812 C 216.019531 122.742188 212.332031 122.949219 208.640625 123.078125 C 205.402344 123.1875 202.160156 123.203125 198.921875 123.140625 C 198.195312 123.125 197.582031 122.675781 197.355469 121.984375 C 193.859375 111.433594 194.507812 94.585938 198.171875 84.136719 C 198.246094 83.925781 198.34375 83.757812 198.492188 83.585938 C 201.402344 80.257812 204.554688 77.144531 207.914062 74.273438 C 210.988281 71.648438 214.238281 69.222656 217.632812 67.027344 C 217.753906 66.945312 217.867188 66.890625 218.011719 66.84375 Z M 176.988281 155.085938 C 176.148438 148.773438 175.96875 142.375 176.464844 136.023438 C 177.488281 122.960938 181.328125 110.242188 187.738281 98.808594 C 188.128906 98.113281 188.921875 97.792969 189.683594 98.019531 C 190.445312 98.246094 190.9375 98.945312 190.882812 99.742188 C 190.328125 108.183594 190.953125 118.617188 194.421875 126.378906 C 194.589844 126.75 194.613281 127.125 194.503906 127.515625 C 193.378906 131.539062 192.203125 135.546875 190.976562 139.542969 C 189.679688 143.757812 188.34375 147.960938 186.984375 152.15625 C 186.828125 152.636719 186.507812 152.988281 186.042969 153.183594 C 183.820312 154.132812 181.59375 155.128906 179.488281 156.328125 C 178.988281 156.613281 178.425781 156.628906 177.90625 156.371094 C 177.394531 156.113281 177.066406 155.65625 176.988281 155.085938 Z M 210.804688 176 C 212.210938 187.933594 216.570312 199.578125 222.40625 210.039062 C 222.734375 210.628906 222.6875 211.316406 222.285156 211.859375 C 220.871094 213.757812 219.4375 215.640625 217.96875 217.5 C 217.421875 218.195312 216.429688 218.351562 215.695312 217.847656 C 209.101562 213.339844 203.140625 207.972656 197.945312 201.90625 C 188.4375 190.800781 181.777344 177.660156 178.5 163.414062 C 178.34375 162.75 178.589844 162.09375 179.140625 161.6875 C 181.289062 160.097656 183.734375 158.914062 186.175781 157.839844 C 186.804688 157.558594 187.503906 157.679688 188.007812 158.152344 C 190.921875 160.890625 193.914062 163.550781 197.0625 166.019531 C 201.15625 169.238281 205.546875 172.070312 210.003906 174.757812 C 210.460938 175.035156 210.742188 175.464844 210.804688 176 Z M 356.945312 133.636719 C 357.511719 139.109375 357.574219 144.625 357.152344 150.109375 C 355.347656 173.367188 344.726562 194.882812 327.332031 210.457031 C 326.886719 210.855469 326.320312 210.984375 325.75 210.824219 C 325.179688 210.660156 324.761719 210.25 324.59375 209.683594 C 322.507812 202.625 318.964844 195.390625 314.5 189.546875 C 314.144531 189.082031 314.054688 188.523438 314.246094 187.972656 C 317.515625 178.644531 319.300781 169.429688 320.507812 159.632812 C 320.566406 159.152344 320.796875 158.761719 321.191406 158.476562 C 322.90625 157.230469 324.574219 155.910156 326.191406 154.527344 C 333.457031 148.320312 340.015625 140.640625 344.824219 132.386719 C 345.160156 131.816406 345.746094 131.507812 346.40625 131.558594 C 349.261719 131.769531 352.117188 131.964844 354.976562 132.113281 L 355.355469 132.132812 C 356.1875 132.179688 356.855469 132.808594 356.945312 133.636719 Z M 320.652344 215.894531 C 303.09375 228.882812 281.53125 235.023438 259.757812 233.320312 C 258.835938 233.25 257.917969 233.160156 257 233.0625 C 256.152344 232.96875 255.511719 232.273438 255.496094 231.417969 C 255.476562 230.28125 255.453125 229.140625 255.421875 228.003906 C 255.332031 224.527344 255.183594 221.058594 255.007812 217.585938 C 254.980469 216.988281 255.238281 216.460938 255.730469 216.121094 C 259.023438 213.84375 262.207031 211.429688 265.25 208.828125 C 271.191406 203.753906 276.484375 198.054688 281.078125 191.730469 C 281.457031 191.203125 282.066406 190.957031 282.707031 191.058594 C 292.359375 192.625 299.90625 192.847656 309.605469 191.644531 C 310.21875 191.566406 310.78125 191.808594 311.152344 192.296875 C 315.816406 198.449219 319.59375 206.640625 321.292969 214.175781 C 321.445312 214.839844 321.203125 215.488281 320.652344 215.894531 Z M 293.632812 56.589844 C 310.027344 61.652344 324.523438 71.199219 335.679688 84.230469 C 338.453125 87.46875 341 90.902344 343.296875 94.5 C 343.777344 95.253906 343.585938 96.246094 342.859375 96.769531 C 341.976562 97.402344 341.089844 98.027344 340.199219 98.65625 C 339.554688 99.105469 338.710938 99.058594 338.121094 98.539062 C 328.644531 90.21875 317.5 83.199219 305.101562 80.289062 C 304.660156 80.1875 304.320312 79.945312 304.074219 79.570312 C 300.246094 73.714844 294.882812 68.484375 289.773438 63.738281 C 289.214844 63.21875 289.070312 62.417969 289.421875 61.738281 L 291.640625 57.429688 C 292.015625 56.699219 292.84375 56.347656 293.632812 56.589844 Z M 236.828125 57.617188 C 248.695312 53.464844 261.324219 51.835938 273.859375 52.816406 C 277.890625 53.132812 281.902344 53.714844 285.855469 54.5625 C 286.386719 54.679688 286.796875 54.996094 287.023438 55.488281 C 287.257812 55.976562 287.25 56.496094 287.003906 56.976562 L 285.492188 59.914062 C 285.214844 60.445312 284.730469 60.769531 284.128906 60.820312 C 274.4375 61.621094 265.3125 62.984375 255.960938 65.738281 C 255.578125 65.851562 255.210938 65.832031 254.84375 65.675781 C 249.199219 63.347656 243.246094 61.613281 237.179688 60.875 C 236.394531 60.777344 235.796875 60.171875 235.710938 59.386719 C 235.628906 58.597656 236.082031 57.882812 236.828125 57.617188 Z M 277.820312 188.828125 C 270.46875 199.050781 261.695312 206.945312 251.277344 213.914062 C 250.949219 214.132812 250.601562 214.222656 250.210938 214.191406 C 246.878906 213.941406 243.5625 213.539062 240.285156 212.875 C 235.929688 211.992188 231.65625 210.6875 227.441406 209.273438 C 227.035156 209.136719 226.726562 208.882812 226.515625 208.507812 C 220.308594 197.542969 215.738281 185.148438 214.820312 172.515625 C 214.773438 171.898438 215.042969 171.347656 215.558594 171 C 221.910156 166.726562 228.234375 162.304688 234.074219 157.351562 C 234.589844 156.914062 235.273438 156.824219 235.882812 157.113281 C 246.144531 161.925781 257.035156 165.207031 268.277344 166.726562 C 268.941406 166.820312 269.460938 167.257812 269.65625 167.898438 C 271.710938 174.519531 274.464844 180.988281 277.914062 187.011719 C 278.25 187.597656 278.214844 188.28125 277.820312 188.828125 Z M 337.132812 103.789062 C 338.4375 108.035156 339.628906 112.339844 340.398438 116.71875 C 341.101562 120.757812 341.410156 124.839844 341.523438 128.933594 C 341.53125 129.257812 341.460938 129.535156 341.304688 129.816406 C 335.910156 139.238281 327.980469 148.054688 319.257812 154.527344 C 318.617188 155.003906 317.75 154.96875 317.148438 154.441406 C 311.683594 149.671875 306.222656 145.597656 299.71875 142.296875 C 299.199219 142.03125 298.878906 141.566406 298.804688 140.992188 C 297.421875 129.324219 293.574219 116.765625 288.949219 106.015625 C 288.664062 105.359375 288.8125 104.632812 289.324219 104.140625 C 295.109375 98.558594 299.992188 92.386719 304.5 85.75 C 304.914062 85.140625 305.640625 84.875 306.347656 85.078125 C 317.746094 88.285156 327.972656 95.152344 336.65625 103.039062 C 336.890625 103.25 337.042969 103.488281 337.132812 103.789062 Z M 235.089844 151.355469 C 232.257812 142.8125 228.421875 134.257812 224.253906 126.277344 C 223.925781 125.652344 224.011719 124.921875 224.484375 124.390625 C 233.296875 114.378906 244.0625 102.753906 255.230469 95.527344 C 255.742188 95.195312 256.34375 95.160156 256.890625 95.429688 C 265.207031 99.542969 274.34375 102.792969 283.261719 105.335938 C 283.757812 105.476562 284.125 105.796875 284.335938 106.269531 C 289.085938 116.890625 292.984375 129.445312 294.433594 140.960938 C 294.511719 141.566406 294.277344 142.125 293.792969 142.5 C 285.800781 148.699219 277.753906 155.351562 270.15625 162.03125 C 269.777344 162.367188 269.320312 162.503906 268.816406 162.4375 C 257.371094 160.886719 246.304688 157.421875 235.945312 152.339844 C 235.523438 152.132812 235.234375 151.800781 235.089844 151.355469 " fill-opacity="1" fill-rule="evenodd"/><path fill="#e6e6e6" d="M 218.011719 66.84375 C 226.617188 63.964844 235.765625 64.40625 244.425781 66.699219 C 227.398438 80.171875 215.769531 100.148438 213.300781 122.878906 C 211.746094 122.957031 210.195312 123.023438 208.640625 123.078125 C 205.402344 123.1875 202.160156 123.203125 198.921875 123.140625 C 198.195312 123.125 197.582031 122.675781 197.355469 121.984375 C 193.859375 111.433594 194.507812 94.585938 198.171875 84.136719 C 198.246094 83.925781 198.34375 83.757812 198.492188 83.585938 C 201.402344 80.257812 204.554688 77.144531 207.914062 74.273438 C 210.988281 71.648438 214.238281 69.222656 217.632812 67.027344 C 217.753906 66.945312 217.867188 66.890625 218.011719 66.84375 Z M 176.988281 155.085938 C 176.148438 148.773438 175.96875 142.375 176.464844 136.023438 C 177.488281 122.960938 181.328125 110.242188 187.738281 98.808594 C 188.128906 98.113281 188.921875 97.792969 189.683594 98.019531 C 190.445312 98.246094 190.9375 98.945312 190.882812 99.742188 C 190.328125 108.183594 190.953125 118.617188 194.421875 126.378906 C 194.589844 126.75 194.613281 127.125 194.503906 127.515625 C 193.378906 131.539062 192.203125 135.546875 190.976562 139.542969 C 189.679688 143.757812 188.34375 147.960938 186.984375 152.15625 C 186.828125 152.636719 186.507812 152.988281 186.042969 153.183594 C 183.820312 154.132812 181.59375 155.128906 179.488281 156.328125 C 178.988281 156.613281 178.425781 156.628906 177.90625 156.371094 C 177.394531 156.113281 177.066406 155.65625 176.988281 155.085938 Z M 210.804688 176 C 212.210938 187.933594 216.570312 199.578125 222.40625 210.039062 C 222.734375 210.628906 222.6875 211.316406 222.285156 211.859375 C 220.871094 213.757812 219.4375 215.640625 217.96875 217.5 C 217.421875 218.195312 216.429688 218.351562 215.695312 217.847656 C 209.101562 213.339844 203.140625 207.972656 197.945312 201.90625 C 188.4375 190.800781 181.777344 177.660156 178.5 163.414062 C 178.34375 162.75 178.589844 162.09375 179.140625 161.6875 C 181.289062 160.097656 183.734375 158.914062 186.175781 157.839844 C 186.804688 157.558594 187.503906 157.679688 188.007812 158.152344 C 190.921875 160.890625 193.914062 163.550781 197.0625 166.019531 C 201.15625 169.238281 205.546875 172.070312 210.003906 174.757812 C 210.460938 175.035156 210.742188 175.464844 210.804688 176 Z M 329.992188 207.972656 C 329.121094 208.820312 328.234375 209.648438 327.332031 210.457031 C 326.886719 210.855469 326.320312 210.984375 325.75 210.824219 C 325.324219 210.703125 324.988281 210.449219 324.773438 210.09375 C 326.542969 209.449219 328.28125 208.738281 329.992188 207.972656 Z M 320.652344 215.894531 C 303.09375 228.882812 281.53125 235.023438 259.757812 233.320312 C 258.835938 233.25 257.917969 233.160156 257 233.0625 C 256.152344 232.96875 255.511719 232.273438 255.496094 231.417969 C 255.476562 230.28125 255.453125 229.140625 255.421875 228.003906 C 255.332031 224.527344 255.183594 221.058594 255.007812 217.585938 C 254.980469 216.988281 255.238281 216.460938 255.730469 216.121094 C 258.898438 213.929688 261.964844 211.613281 264.902344 209.128906 C 274.535156 213.015625 285.0625 215.160156 296.089844 215.160156 C 304.625 215.160156 312.859375 213.875 320.609375 211.492188 C 320.863281 212.394531 321.09375 213.289062 321.292969 214.175781 C 321.445312 214.839844 321.203125 215.488281 320.652344 215.894531 Z M 236.828125 57.617188 C 247.765625 53.789062 259.34375 52.105469 270.90625 52.632812 C 262.957031 55.152344 255.523438 58.828125 248.804688 63.464844 C 245.015625 62.257812 241.121094 61.355469 237.179688 60.875 C 236.394531 60.777344 235.796875 60.171875 235.710938 59.386719 C 235.628906 58.597656 236.082031 57.882812 236.828125 57.617188 Z M 260.441406 207.171875 C 257.535156 209.535156 254.484375 211.765625 251.277344 213.914062 C 250.949219 214.132812 250.601562 214.222656 250.210938 214.191406 C 246.878906 213.941406 243.5625 213.539062 240.285156 212.875 C 235.929688 211.992188 231.65625 210.6875 227.441406 209.273438 C 227.035156 209.136719 226.726562 208.882812 226.515625 208.507812 C 220.308594 197.542969 215.738281 185.148438 214.820312 172.515625 C 214.773438 171.898438 215.042969 171.347656 215.558594 171 C 217.292969 169.832031 219.023438 168.652344 220.746094 167.453125 C 228.972656 184.84375 243.046875 198.929688 260.441406 207.171875 " fill-opacity="1" fill-rule="evenodd"/></svg>